<svg width="254" height="75" viewBox="0 0 254 75" fill="none" xmlns="http://www.w3.org/2000/svg">
<path d="M251.485 66.1454C251.485 67.0894 251.299 68.0241 250.938 68.8961C250.576 69.7681 250.046 70.5603 249.378 71.2274C248.71 71.8945 247.917 72.4235 247.044 72.784C246.171 73.1446 245.236 73.3296 244.292 73.3287H8.87307C6.96499 73.3306 5.13424 72.575 3.78344 71.228C2.43265 69.8809 1.67241 68.0527 1.66992 66.1454V8.86155C1.67241 6.95341 2.43235 5.12425 3.78287 3.7757C5.1334 2.42715 6.96413 1.66944 8.87307 1.66895H244.29C245.235 1.66895 246.17 1.855 247.043 2.21649C247.916 2.57797 248.709 3.1078 249.377 3.77572C250.045 4.44364 250.575 5.23656 250.936 6.1092C251.298 6.98184 251.484 7.91709 251.483 8.86155L251.485 66.1454Z" fill="white"/>
<path d="M244.291 75H8.87306C6.52253 74.9995 4.26819 74.067 2.60471 72.407C0.941224 70.747 0.00447242 68.4952 0 66.1457L0 8.86369C0.00347727 6.51298 0.939611 4.25964 2.60304 2.59796C4.26647 0.936292 6.52136 0.00198408 8.87306 0L244.29 0C246.641 0.00297409 248.895 0.9376 250.559 2.59906C252.222 4.26052 253.158 6.51329 253.163 8.86369V66.1457C253.166 71.0295 249.179 75 244.291 75Z" fill="#A6A6A6"/>
<path d="M251.485 66.1454C251.485 67.0894 251.299 68.0241 250.938 68.8961C250.576 69.7681 250.046 70.5603 249.378 71.2274C248.71 71.8945 247.917 72.4235 247.044 72.784C246.171 73.1446 245.236 73.3296 244.292 73.3287H8.87307C6.96499 73.3306 5.13424 72.575 3.78344 71.228C2.43265 69.8809 1.67241 68.0527 1.66992 66.1454V8.86155C1.67241 6.95341 2.43235 5.12425 3.78287 3.7757C5.1334 2.42715 6.96413 1.66944 8.87307 1.66895H244.29C245.235 1.66895 246.17 1.855 247.043 2.21649C247.916 2.57797 248.709 3.1078 249.377 3.77572C250.045 4.44364 250.575 5.23656 250.936 6.1092C251.298 6.98184 251.484 7.91709 251.483 8.86155L251.485 66.1454Z" fill="black"/>
<path d="M56.5294 37.1053C56.475 31.0605 61.481 28.1197 61.7099 27.9828C58.8748 23.851 54.4805 23.2865 52.9363 23.2415C49.2456 22.8532 45.6656 25.4489 43.7856 25.4489C41.868 25.4489 38.9728 23.279 35.8525 23.3427C31.8372 23.4046 28.0809 25.7284 26.0207 29.3369C21.769 36.6945 24.9399 47.5069 29.0134 53.4541C31.0511 56.3687 33.4321 59.619 36.5486 59.5046C39.5976 59.3808 40.7366 57.5634 44.416 57.5634C48.0617 57.5634 49.1312 59.5046 52.3096 59.4314C55.5819 59.3808 57.6421 56.5056 59.6085 53.5667C61.9632 50.2301 62.9089 46.9405 62.9464 46.7717C62.8714 46.7454 56.5932 44.3485 56.5294 37.1053ZM50.5252 19.3291C52.1651 17.2792 53.2872 14.4903 52.9757 11.6602C50.6022 11.7652 47.6339 13.3012 45.9245 15.3062C44.4122 17.0729 43.0613 19.9687 43.4103 22.6919C46.0765 22.8907 48.8141 21.3472 50.5252 19.3291Z" fill="white"/>
<path d="M244.291 0H118.194L167.584 75H244.291C246.642 74.998 248.897 74.0642 250.56 72.4034C252.223 70.7425 253.16 68.4901 253.165 66.1401V8.86369C253.161 6.51314 252.224 4.26008 250.561 2.59851C248.898 0.936947 246.643 0.00247928 244.291 0Z" fill="url(#paint0_linear_209_168)"/>
<path d="M100.692 59.0867H96.4309L94.0968 51.7553H85.9836L83.7602 59.0867H79.6117L87.6517 34.1273H92.6164L100.692 59.0867ZM93.3932 48.6794L91.2823 42.162C91.059 41.4962 90.6388 39.9283 90.0233 37.4601H89.9483C89.7006 38.5216 89.3047 40.0896 88.7624 42.162L86.6873 48.6794H93.3932ZM121.328 49.8666C121.328 52.9275 120.496 55.3469 118.832 57.123C117.342 58.704 115.49 59.4936 113.282 59.4936C110.897 59.4936 109.182 58.644 108.141 56.9411V66.3843H104.141V47.0046C104.141 45.0822 104.09 43.111 103.992 41.0892H107.511L107.734 43.9419H107.809C109.143 41.7925 111.167 40.7178 113.884 40.7178C116.008 40.7178 117.781 41.5562 119.2 43.2348C120.617 44.9171 121.328 47.1265 121.328 49.8666ZM117.252 50.0129C117.252 48.2612 116.858 46.817 116.066 45.6786C115.201 44.4951 114.04 43.9025 112.584 43.9025C111.597 43.9025 110.7 44.2326 109.899 44.8834C109.096 45.5398 108.571 46.3969 108.325 47.4585C108.215 47.8554 108.153 48.264 108.139 48.6757V51.6784C108.139 52.9856 108.541 54.0903 109.344 54.9943C110.147 55.8945 111.19 56.3465 112.473 56.3465C113.98 56.3465 115.153 55.7632 115.991 54.606C116.832 53.4451 117.252 51.9147 117.252 50.0129ZM142.036 49.8666C142.036 52.9275 141.205 55.3469 139.541 57.123C138.049 58.704 136.199 59.4936 133.989 59.4936C131.604 59.4936 129.889 58.644 128.848 56.9411V66.3843H124.848V47.0046C124.848 45.0822 124.797 43.111 124.699 41.0892H128.217L128.441 43.9419H128.516C129.848 41.7925 131.872 40.7178 134.591 40.7178C136.713 40.7178 138.486 41.5562 139.909 43.2348C141.323 44.9171 142.036 47.1265 142.036 49.8666ZM137.959 50.0129C137.959 48.2612 137.563 46.817 136.772 45.6786C135.907 44.4951 134.749 43.9025 133.293 43.9025C132.306 43.9025 131.409 44.2326 130.604 44.8834C129.801 45.5398 129.278 46.3969 129.032 47.4585C128.91 47.9536 128.844 48.3568 128.844 48.6757V51.6784C128.844 52.9856 129.248 54.0903 130.047 54.9943C130.85 55.8927 131.893 56.3465 133.18 56.3465C134.689 56.3465 135.862 55.7632 136.698 54.606C137.539 53.4451 137.959 51.9147 137.959 50.0129ZM165.19 52.0854C165.19 54.2103 164.447 55.9377 162.97 57.2712C161.346 58.7266 159.077 59.4561 156.169 59.4561C153.482 59.4561 151.328 58.9385 149.703 57.9013L150.628 54.5685C152.382 55.6076 154.309 56.1252 156.407 56.1252C157.916 56.1252 159.088 55.7839 159.925 55.1068C160.764 54.4279 161.188 53.5201 161.188 52.3873C161.188 51.3727 160.837 50.523 160.148 49.831C159.456 49.1408 158.312 48.4975 156.704 47.9067C152.332 46.2769 150.144 43.8931 150.144 40.7572C150.144 38.7092 150.917 37.0325 152.459 35.7215C154.002 34.4124 156.047 33.7578 158.591 33.7578C160.863 33.7578 162.757 34.1535 164.259 34.9431L163.256 38.2028C161.841 37.4376 160.244 37.055 158.458 37.055C157.047 37.055 155.94 37.4019 155.148 38.0921C154.482 38.7092 154.144 39.4613 154.144 40.354C154.144 41.3386 154.529 42.1564 155.294 42.7978C155.959 43.3886 157.171 44.0319 158.923 44.7221C161.073 45.5886 162.653 46.5976 163.665 47.7567C164.683 48.9157 165.19 50.3618 165.19 52.0854ZM178.45 44.09H174.041V52.8281C174.041 55.0505 174.817 56.159 176.375 56.159C177.09 56.159 177.683 56.099 178.152 55.9733L178.262 59.0098C177.474 59.3042 176.437 59.4524 175.151 59.4524C173.572 59.4524 172.337 58.9704 171.446 58.0064C170.558 57.0423 170.112 55.4275 170.112 53.1544V44.0825H167.485V41.0817H170.112V37.7864L174.041 36.6011V41.0817H178.45V44.09ZM198.305 49.9398C198.305 52.7062 197.513 54.9774 195.933 56.7535C194.28 58.5821 192.081 59.4936 189.34 59.4936C186.694 59.4936 184.591 58.6178 183.023 56.8679C181.454 55.1143 180.67 52.905 180.67 50.2398C180.67 47.451 181.48 45.1666 183.096 43.3905C184.715 41.6125 186.895 40.7235 189.636 40.7235C192.278 40.7235 194.4 41.6012 196.007 43.353C197.541 45.0522 198.305 47.2465 198.305 49.9398ZM194.158 50.0317C194.158 48.3831 193.802 46.9689 193.087 45.7855C192.248 44.3564 191.047 43.6418 189.492 43.6418C187.89 43.6418 186.661 44.3564 185.824 45.7855C185.107 46.9689 184.751 48.4075 184.751 50.1067C184.751 51.7571 185.107 53.175 185.824 54.3547C186.689 55.7839 187.895 56.4984 189.458 56.4984C190.987 56.4984 192.186 55.7689 193.053 54.3191C193.789 53.1075 194.158 51.684 194.158 50.0317ZM211.313 44.6058C210.897 44.5307 210.475 44.4937 210.053 44.4951C208.645 44.4951 207.557 45.024 206.792 46.0893C206.127 47.0271 205.793 48.2124 205.793 49.6434V59.0867H201.793V46.757C201.797 44.8677 201.758 42.9786 201.677 41.0911H205.161L205.307 44.5345H205.418C205.842 43.3511 206.506 42.3964 207.418 41.6819C208.253 41.0575 209.267 40.7193 210.31 40.7178C210.679 40.7178 211.013 40.7441 211.31 40.791L211.313 44.6058ZM229.204 49.2364C229.214 49.8443 229.165 50.4517 229.058 51.0501H217.057C217.102 52.8281 217.684 54.1897 218.798 55.1274C219.809 55.9639 221.117 56.384 222.723 56.384C224.5 56.384 226.121 56.1027 227.579 55.5344L228.206 58.3083C226.502 59.051 224.491 59.4205 222.17 59.4205C219.378 59.4205 217.186 58.599 215.591 56.9598C214 55.3187 213.203 53.1131 213.203 50.3505C213.203 47.6385 213.944 45.3785 215.428 43.5761C216.982 41.6519 219.081 40.6897 221.723 40.6897C224.318 40.6897 226.283 41.6519 227.617 43.5761C228.673 45.1009 229.204 46.9915 229.204 49.2364ZM225.39 48.1993C225.418 47.0121 225.155 45.9899 224.613 45.1253C223.92 44.0113 222.855 43.4561 221.427 43.4561C220.119 43.4561 219.053 43.9981 218.243 45.0859C217.577 45.9505 217.181 46.9896 217.059 48.1955L225.39 48.1993Z" fill="white"/>
<path d="M84.8297 25.3024C83.7171 25.3024 82.7546 25.248 81.9534 25.1561V13.089C83.0739 12.916 84.2063 12.8307 85.3401 12.8339C89.9277 12.8339 92.0404 15.0902 92.0404 18.7681C92.0404 23.0105 89.5449 25.3024 84.8297 25.3024ZM85.5015 14.3812C84.8823 14.3812 84.355 14.4187 83.9179 14.5088V23.6819C84.1543 23.7194 84.6083 23.7363 85.2463 23.7363C88.2521 23.7363 89.9633 22.0258 89.9633 18.8225C89.9633 15.9661 88.4154 14.3812 85.5015 14.3812ZM98.6244 25.3943C96.0388 25.3943 94.3633 23.4644 94.3633 20.8443C94.3633 18.1135 96.0745 16.1667 98.7707 16.1667C101.319 16.1667 103.032 18.0047 103.032 20.6999C103.032 23.4644 101.266 25.3943 98.6244 25.3943ZM98.6994 17.6034C97.279 17.6034 96.369 18.9312 96.369 20.788C96.369 22.6091 97.2978 23.937 98.6806 23.937C100.063 23.937 100.992 22.5172 100.992 20.7505C100.992 18.95 100.082 17.6034 98.6994 17.6034ZM117.776 16.3487L115.008 25.1936H113.205L112.059 21.3525C111.774 20.413 111.536 19.4596 111.348 18.4961H111.31C111.166 19.4601 110.892 20.426 110.601 21.3525L109.381 25.1936H107.559L104.955 16.3487H106.976L107.978 20.5536C108.214 21.5551 108.413 22.5003 108.578 23.3931H108.616C108.76 22.6485 108.997 21.7183 109.344 20.5723L110.601 16.3505H112.203L113.406 20.4823C113.697 21.4838 113.933 22.4666 114.117 23.395H114.17C114.297 22.4853 114.498 21.5195 114.77 20.4823L115.845 16.3505L117.776 16.3487ZM127.964 25.1936H125.998V20.1147C125.998 18.5505 125.397 17.7665 124.213 17.7665C123.048 17.7665 122.247 18.7681 122.247 19.9328V25.1936H120.281V18.8769C120.281 18.0948 120.262 17.2564 120.208 16.3468H121.937L122.029 17.7122H122.084C122.613 16.7669 123.686 16.1667 124.889 16.1667C126.746 16.1667 127.966 17.5865 127.966 19.8971L127.964 25.1936ZM133.387 25.1936H131.418V12.29H133.387V25.1936ZM140.556 25.3943C137.972 25.3943 136.295 23.4644 136.295 20.8443C136.295 18.1135 138.006 16.1667 140.701 16.1667C143.25 16.1667 144.962 18.0047 144.962 20.6999C144.964 23.4644 143.196 25.3943 140.556 25.3943ZM140.629 17.6034C139.209 17.6034 138.299 18.9312 138.299 20.788C138.299 22.6091 139.23 23.937 140.609 23.937C141.993 23.937 142.92 22.5172 142.92 20.7505C142.922 18.95 142.014 17.6034 140.629 17.6034ZM152.715 25.1936L152.572 24.1752H152.519C151.919 24.9948 151.043 25.3943 149.932 25.3943C148.347 25.3943 147.221 24.284 147.221 22.7911C147.221 20.608 149.114 19.4789 152.392 19.4789V19.3157C152.392 18.151 151.775 17.5677 150.555 17.5677C149.682 17.5677 148.917 17.7872 148.243 18.2242L147.844 16.9319C148.662 16.4218 149.682 16.1667 150.881 16.1667C153.193 16.1667 154.36 17.3858 154.36 19.8259V23.0836C154.36 23.9764 154.399 24.6684 154.488 25.1955L152.715 25.1936ZM152.444 20.788C150.26 20.788 149.165 21.3169 149.165 22.5716C149.165 23.5 149.729 23.9539 150.514 23.9539C151.514 23.9539 152.444 23.1905 152.444 22.1534V20.788ZM163.909 25.1936L163.817 23.7738H163.762C163.197 24.8466 162.248 25.3943 160.922 25.3943C158.788 25.3943 157.208 23.5188 157.208 20.8799C157.208 18.1135 158.846 16.1649 161.083 16.1649C162.267 16.1649 163.106 16.5643 163.578 17.3671H163.618V12.29H165.586V22.8098C165.586 23.665 165.607 24.4659 165.659 25.1936H163.909ZM163.618 19.989C163.618 18.7512 162.798 17.6953 161.546 17.6953C160.088 17.6953 159.197 18.9875 159.197 20.8068C159.197 22.5904 160.122 23.8113 161.507 23.8113C162.743 23.8113 163.618 22.7367 163.618 21.4632V19.989ZM178.065 25.3943C175.482 25.3943 173.806 23.4644 173.806 20.8443C173.806 18.1135 175.517 16.1667 178.212 16.1667C180.762 16.1667 182.473 18.0047 182.473 20.6999C182.475 23.4644 180.709 25.3943 178.065 25.3943ZM178.139 17.6034C176.72 17.6034 175.81 18.9312 175.81 20.788C175.81 22.6091 176.739 23.937 178.12 23.937C179.504 23.937 180.431 22.5172 180.431 20.7505C180.435 18.95 179.525 17.6034 178.139 17.6034ZM193.048 25.1936H191.079V20.1147C191.079 18.5505 190.479 17.7665 189.295 17.7665C188.13 17.7665 187.331 18.7681 187.331 19.9328V25.1936H185.362V18.8769C185.362 18.0948 185.344 17.2564 185.289 16.3468H187.019L187.111 17.7122H187.165C187.693 16.7669 188.768 16.1649 189.969 16.1649C191.826 16.1649 193.048 17.5846 193.048 19.8953V25.1936ZM206.278 17.8228H204.114V22.1177C204.114 23.2112 204.493 23.7569 205.259 23.7569C205.606 23.7569 205.897 23.7194 206.131 23.665L206.186 25.158C205.805 25.3042 205.294 25.3774 204.66 25.3774C203.11 25.3774 202.183 24.5222 202.183 22.2828V17.8228H200.893V16.3487H202.183V14.7282L204.114 14.1449V16.3468H206.278V17.8228ZM216.687 25.1936H214.723V20.1522C214.723 18.5693 214.124 17.7684 212.938 17.7684C211.92 17.7684 210.97 18.4605 210.97 19.8615V25.1936H209.006V12.29H210.97V17.6034H211.01C211.629 16.6394 212.526 16.1649 213.67 16.1649C215.543 16.1649 216.687 17.6203 216.687 19.9328V25.1936ZM227.352 21.2438H221.451C221.489 22.9186 222.598 23.8638 224.239 23.8638C225.112 23.8638 225.915 23.7176 226.624 23.4456L226.93 24.811C226.093 25.1748 225.108 25.3568 223.962 25.3568C221.194 25.3568 219.556 23.6088 219.556 20.8987C219.556 18.1867 221.234 16.148 223.74 16.148C226.001 16.148 227.42 17.8228 227.42 20.3529C227.432 20.6515 227.41 20.9505 227.352 21.2438ZM225.549 19.8427C225.549 18.4774 224.86 17.5134 223.603 17.5134C222.474 17.5134 221.581 18.4961 221.453 19.8427H225.549Z" fill="white"/>
<defs>
<linearGradient id="paint0_linear_209_168" x1="185.677" y1="75.1991" x2="185.677" y2="-195.287" gradientUnits="userSpaceOnUse">
<stop stop-color="#1A1A1A" stop-opacity="0.1"/>
<stop offset="0.123" stop-color="#212121" stop-opacity="0.151"/>
<stop offset="0.308" stop-color="#353535" stop-opacity="0.227"/>
<stop offset="0.532" stop-color="#575757" stop-opacity="0.318"/>
<stop offset="0.783" stop-color="#858585" stop-opacity="0.421"/>
<stop offset="1" stop-color="#B3B3B3" stop-opacity="0.51"/>
</linearGradient>
</defs>
</svg>
