<svg width="263" height="75" viewBox="0 0 263 75" fill="none" xmlns="http://www.w3.org/2000/svg">
<g clip-path="url(#clip0_209_155)">
<path d="M253.259 76.964H9.74074C4.28593 76.964 0 72.6781 0 67.2233V8.77883C0 3.32401 4.28593 -0.961914 9.74074 -0.961914H253.259C258.714 -0.961914 263 3.32401 263 8.77883V67.2233C263 72.6781 258.714 76.964 253.259 76.964Z" fill="black"/>
<path d="M253.259 0.596604C257.74 0.596604 261.441 4.29809 261.441 8.77883V67.2233C261.441 71.704 257.74 75.4055 253.259 75.4055H9.74074C5.26 75.4055 1.55852 71.704 1.55852 67.2233V8.77883C1.55852 4.29809 5.26 0.596604 9.74074 0.596604H253.259ZM253.259 -0.961914H9.74074C4.28593 -0.961914 0 3.51883 0 8.77883V67.2233C0 72.6781 4.28593 76.964 9.74074 76.964H253.259C258.714 76.964 263 72.6781 263 67.2233V8.77883C263 3.51883 258.714 -0.961914 253.259 -0.961914Z" fill="#A6A6A6"/>
<path d="M91.6889 22.131C91.6889 23.6896 91.2993 25.0533 90.3252 26.0273C89.1563 27.1962 87.7926 27.7807 86.0393 27.7807C84.2859 27.7807 82.9222 27.1962 81.7533 26.0273C80.5844 24.8584 80 23.4947 80 21.7414C80 19.9881 80.5844 18.6244 81.7533 17.4555C82.9222 16.2866 84.2859 15.7021 86.0393 15.7021C86.8185 15.7021 87.5978 15.897 88.377 16.2866C89.1563 16.6762 89.7407 17.0659 90.1304 17.6503L89.1563 18.6244C88.377 17.6503 87.403 17.2607 86.0393 17.2607C84.8704 17.2607 83.7015 17.6503 82.9222 18.6244C81.9481 19.4036 81.5585 20.5725 81.5585 21.9362C81.5585 23.2999 81.9481 24.4688 82.9222 25.2481C83.8963 26.0273 84.8704 26.6118 86.0393 26.6118C87.403 26.6118 88.377 26.2221 89.3511 25.2481C89.9356 24.6636 90.3252 23.8844 90.3252 22.9103H86.0393V21.3518H91.6889V22.131ZM100.65 17.2607H95.3904V20.9621H100.261V22.3259H95.3904V26.0273H100.65V27.5859H93.8318V15.897H100.65V17.2607ZM107.079 27.5859H105.521V17.2607H102.209V15.897H110.391V17.2607H107.079V27.5859ZM116.041 27.5859V15.897H117.599V27.5859H116.041ZM124.223 27.5859H122.664V17.2607H119.353V15.897H127.34V17.2607H124.028V27.5859H124.223ZM142.73 26.0273C141.561 27.1962 140.198 27.7807 138.444 27.7807C136.691 27.7807 135.327 27.1962 134.159 26.0273C132.99 24.8584 132.405 23.4947 132.405 21.7414C132.405 19.9881 132.99 18.6244 134.159 17.4555C135.327 16.2866 136.691 15.7021 138.444 15.7021C140.198 15.7021 141.561 16.2866 142.73 17.4555C143.899 18.6244 144.484 19.9881 144.484 21.7414C144.484 23.4947 143.899 24.8584 142.73 26.0273ZM135.327 25.0533C136.107 25.8325 137.276 26.417 138.444 26.417C139.613 26.417 140.782 26.0273 141.561 25.0533C142.341 24.274 142.925 23.1051 142.925 21.7414C142.925 20.3777 142.536 19.2088 141.561 18.4296C140.782 17.6503 139.613 17.0659 138.444 17.0659C137.276 17.0659 136.107 17.4555 135.327 18.4296C134.548 19.2088 133.964 20.3777 133.964 21.7414C133.964 23.1051 134.353 24.274 135.327 25.0533ZM146.627 27.5859V15.897H148.38L154.03 25.0533V15.897H155.588V27.5859H154.03L147.99 18.0399V27.5859H146.627Z" fill="white" stroke="white" stroke-width="1.18519" stroke-miterlimit="10"/>
<path d="M132.6 44.5831C127.924 44.5831 124.223 48.0897 124.223 52.9601C124.223 57.6356 127.924 61.3371 132.6 61.3371C137.276 61.3371 140.977 57.8305 140.977 52.9601C140.977 47.8949 137.276 44.5831 132.6 44.5831ZM132.6 57.8305C130.067 57.8305 127.924 55.6875 127.924 52.7653C127.924 49.8431 130.067 47.7001 132.6 47.7001C135.133 47.7001 137.276 49.6482 137.276 52.7653C137.276 55.6875 135.133 57.8305 132.6 57.8305ZM114.482 44.5831C109.807 44.5831 106.105 48.0897 106.105 52.9601C106.105 57.6356 109.807 61.3371 114.482 61.3371C119.158 61.3371 122.859 57.8305 122.859 52.9601C122.859 47.8949 119.158 44.5831 114.482 44.5831ZM114.482 57.8305C111.95 57.8305 109.807 55.6875 109.807 52.7653C109.807 49.8431 111.95 47.7001 114.482 47.7001C117.015 47.7001 119.158 49.6482 119.158 52.7653C119.158 55.6875 117.015 57.8305 114.482 57.8305ZM92.8578 47.1156V50.6223H101.235C101.04 52.5705 100.261 54.129 99.2867 55.1031C98.1178 56.2719 96.1696 57.6356 92.8578 57.6356C87.5978 57.6356 83.7015 53.5445 83.7015 48.2845C83.7015 43.0245 87.7926 38.9334 92.8578 38.9334C95.5852 38.9334 97.7282 40.1023 99.2867 41.466L101.819 38.9334C99.6763 36.9853 96.9489 35.4268 93.0526 35.4268C86.0393 35.4268 80 41.2712 80 48.2845C80 55.2979 86.0393 61.1423 93.0526 61.1423C96.9489 61.1423 99.6763 59.9734 102.014 57.4408C104.352 55.1031 105.131 51.7912 105.131 49.2586C105.131 48.4794 105.131 47.7001 104.936 47.1156H92.8578ZM181.304 49.8431C180.524 47.8949 178.576 44.5831 174.29 44.5831C170.004 44.5831 166.498 47.8949 166.498 52.9601C166.498 57.6356 170.004 61.3371 174.68 61.3371C178.381 61.3371 180.719 58.9993 181.499 57.6356L178.771 55.6875C177.797 57.0512 176.628 58.0253 174.68 58.0253C172.732 58.0253 171.563 57.246 170.589 55.4927L181.693 50.8171L181.304 49.8431ZM170.004 52.5705C170.004 49.4534 172.537 47.7001 174.29 47.7001C175.654 47.7001 177.018 48.4793 177.407 49.4534L170.004 52.5705ZM160.848 60.5579H164.55V36.206H160.848V60.5579ZM155.004 46.3364C154.03 45.3623 152.471 44.3882 150.523 44.3882C146.432 44.3882 142.536 48.0897 142.536 52.7653C142.536 57.4408 146.237 60.9475 150.523 60.9475C152.471 60.9475 154.03 59.9734 154.809 58.9994H155.004V60.1682C155.004 63.2853 153.25 65.0386 150.523 65.0386C148.38 65.0386 146.821 63.4801 146.432 62.1164L143.315 63.4801C144.289 65.6231 146.627 68.3505 150.718 68.3505C155.004 68.3505 158.51 65.8179 158.51 59.7786V44.9727H155.004V46.3364ZM150.718 57.8305C148.185 57.8305 146.042 55.6875 146.042 52.7653C146.042 49.8431 148.185 47.7001 150.718 47.7001C153.25 47.7001 155.199 49.8431 155.199 52.7653C155.199 55.6875 153.25 57.8305 150.718 57.8305ZM198.253 36.206H189.486V60.5579H193.187V51.4016H198.253C202.344 51.4016 206.24 48.4793 206.24 43.8038C206.24 39.1282 202.344 36.206 198.253 36.206ZM198.447 47.8949H193.187V39.5179H198.447C201.175 39.5179 202.733 41.8556 202.733 43.609C202.539 45.7519 200.98 47.8949 198.447 47.8949ZM220.851 44.3882C218.124 44.3882 215.396 45.5571 214.422 48.0897L217.734 49.4534C218.513 48.0897 219.682 47.7001 221.046 47.7001C222.994 47.7001 224.747 48.869 224.942 50.8171V51.0119C224.358 50.6223 222.799 50.0379 221.241 50.0379C217.734 50.0379 214.227 51.986 214.227 55.4927C214.227 58.8045 217.15 60.9475 220.267 60.9475C222.799 60.9475 223.968 59.7786 224.942 58.6097H225.137V60.5579H228.644V51.2068C228.254 46.9208 224.942 44.3882 220.851 44.3882ZM220.461 57.8305C219.293 57.8305 217.539 57.246 217.539 55.6875C217.539 53.7393 219.682 53.1549 221.436 53.1549C222.994 53.1549 223.773 53.5445 224.747 53.9342C224.358 56.2719 222.41 57.8305 220.461 57.8305ZM240.917 44.9727L236.826 55.4927H236.631L232.345 44.9727H228.449L234.878 59.7786L231.176 67.9608H234.878L244.813 44.9727H240.917ZM208.188 60.5579H211.89V36.206H208.188V60.5579Z" fill="white"/>
<path d="M23.7692 13C23.1923 13.6 23 14.6 23 15.8V60C23 61.2 23.3846 62.2 23.9615 62.8L24.1538 63L48 38.2V37.8L23.7692 13Z" fill="url(#paint0_linear_209_155)"/>
<path d="M56.0788 46L48 38.2824V37.7176L56.0788 30L56.2759 30.1882L65.931 35.4588C68.6897 36.9647 68.6897 39.4118 65.931 40.9176L56.0788 46Z" fill="url(#paint1_linear_209_155)"/>
<path d="M56 45.7985L47.7006 37L23 63.186C23.988 64.2335 25.3713 64.2335 27.1497 63.3955L56 45.7985Z" fill="url(#paint2_linear_209_155)"/>
<path d="M56 28.8152L27.1497 12.6406C25.3713 11.6662 23.988 11.8611 23 12.8355L47.7006 37L56 28.8152Z" fill="url(#paint3_linear_209_155)"/>
<path opacity="0.2" d="M56 46L27.1747 62.8907C25.5843 63.9206 24.1928 63.7146 23.1988 62.8907L23 63.0967L23.1988 63.3027C24.1928 64.1266 25.5843 64.3326 27.1747 63.3027L56 46Z" fill="black"/>
<path opacity="0.12" d="M23.7826 62.7903C23.1957 62.1613 23 61.1129 23 59.8548V60.0645C23 61.3226 23.3913 62.371 23.9783 63V62.7903H23.7826ZM66.0435 39.7258L56.2609 45.5968L56.4565 45.8065L66.0435 39.9355C67.413 39.0968 68 38.0484 68 37C68 38.0484 67.2174 38.8871 66.0435 39.7258Z" fill="black"/>
<path opacity="0.25" d="M27.8913 12.8808L66.0435 34.4714C67.2174 35.2494 68 36.0275 68 37C68 36.0275 67.413 35.0549 66.0435 34.2769L27.8913 12.6862C25.1522 11.1302 23 12.2972 23 15.4094V15.6039C23 12.6862 25.1522 11.3247 27.8913 12.8808Z" fill="white"/>
</g>
<defs>
<linearGradient id="paint0_linear_209_155" x1="45.6923" y1="15.42" x2="12.1522" y2="47.6682" gradientUnits="userSpaceOnUse">
<stop stop-color="#00A0FF"/>
<stop offset="0.007" stop-color="#00A1FF"/>
<stop offset="0.26" stop-color="#00BEFF"/>
<stop offset="0.512" stop-color="#00D2FF"/>
<stop offset="0.76" stop-color="#00DFFF"/>
<stop offset="1" stop-color="#00E3FF"/>
</linearGradient>
<linearGradient id="paint1_linear_209_155" x1="69.5448" y1="37.9078" x2="21.866" y2="37.9078" gradientUnits="userSpaceOnUse">
<stop stop-color="#FFE000"/>
<stop offset="0.409" stop-color="#FFBD00"/>
<stop offset="0.775" stop-color="#FFA500"/>
<stop offset="1" stop-color="#FF9C00"/>
</linearGradient>
<linearGradient id="paint2_linear_209_155" x1="51.5084" y1="41.8099" x2="3.91426" y2="86.7042" gradientUnits="userSpaceOnUse">
<stop stop-color="#FF3A44"/>
<stop offset="1" stop-color="#C31162"/>
</linearGradient>
<linearGradient id="paint3_linear_209_155" x1="16.8683" y1="-1.63205" x2="36.6716" y2="18.4486" gradientUnits="userSpaceOnUse">
<stop stop-color="#32A071"/>
<stop offset="0.069" stop-color="#2DA771"/>
<stop offset="0.476" stop-color="#15CF74"/>
<stop offset="0.801" stop-color="#06E775"/>
<stop offset="1" stop-color="#00F076"/>
</linearGradient>
<clipPath id="clip0_209_155">
<rect width="263" height="75" fill="white"/>
</clipPath>
</defs>
</svg>
