<svg width="56" height="1046" viewBox="0 0 56 1046" fill="none" xmlns="http://www.w3.org/2000/svg">
<path d="M45.1422 25.0203C45.2052 36.0658 36.302 45.057 25.2564 45.1027C14.2108 45.1484 5.20554 36.2312 5.14254 25.1857C5.07955 14.1402 13.9827 5.14901 25.0283 5.10333C36.0739 5.05764 45.0792 13.9748 45.1422 25.0203Z" fill="#0057A4" stroke="#F0F0F0" stroke-width="10"/>
<mask id="path-2-outside-1_1204_1757" maskUnits="userSpaceOnUse" x="12.9986" y="38.9995" width="24" height="1008" fill="black">
<rect fill="white" x="12.9986" y="38.9995" width="24" height="1008"/>
<path d="M19.9986 38.9995L29.9985 38.9995L29.9985 1039.01L19.9986 1039.01L19.9986 38.9995Z"/>
</mask>
<path d="M19.9986 38.9995L29.9985 38.9995L29.9985 1039.01L19.9986 1039.01L19.9986 38.9995Z" fill="#0057A4"/>
<path d="M29.9985 1039.01L29.9985 1046.01L36.9985 1046.01L36.9985 1039.01L29.9985 1039.01ZM19.9986 1039.01L12.9986 1039.01L12.9986 1046.01L19.9986 1046.01L19.9986 1039.01ZM29.9985 38.9995L22.9985 38.9995L22.9985 1039.01L29.9985 1039.01L36.9985 1039.01L36.9985 38.9995L29.9985 38.9995ZM29.9985 1039.01L29.9985 1032.01L19.9986 1032.01L19.9986 1039.01L19.9986 1046.01L29.9985 1046.01L29.9985 1039.01ZM19.9986 1039.01L26.9986 1039.01L26.9986 38.9995L19.9986 38.9995L12.9986 38.9995L12.9986 1039.01L19.9986 1039.01Z" fill="#F0F0F0" mask="url(#path-2-outside-1_1204_1757)"/>
</svg>
