<svg width="199" height="207" viewBox="0 0 199 207" fill="none" xmlns="http://www.w3.org/2000/svg">
<g filter="url(#filter0_d_1366_63)">
<circle cx="66" cy="60" r="60" fill="#F5F5F5"/>
<circle cx="66" cy="60" r="58.5" stroke="#0057A4" stroke-width="3"/>
</g>
<path d="M5.21603 151.216C4.20803 151.216 3.24203 151.084 2.31803 150.82C1.39403 150.544 0.650031 150.19 0.0860313 149.758L1.07603 147.562C1.61603 147.946 2.25203 148.264 2.98403 148.516C3.72803 148.756 4.47803 148.876 5.23403 148.876C5.81003 148.876 6.27203 148.822 6.62003 148.714C6.98003 148.594 7.24403 148.432 7.41203 148.228C7.58003 148.024 7.66403 147.79 7.66403 147.526C7.66403 147.19 7.53203 146.926 7.26803 146.734C7.00403 146.53 6.65603 146.368 6.22403 146.248C5.79203 146.116 5.31203 145.996 4.78403 145.888C4.26803 145.768 3.74603 145.624 3.21803 145.456C2.70203 145.288 2.22803 145.072 1.79603 144.808C1.36403 144.544 1.01003 144.196 0.734031 143.764C0.470031 143.332 0.338031 142.78 0.338031 142.108C0.338031 141.388 0.530031 140.734 0.914031 140.146C1.31003 139.546 1.89803 139.072 2.67803 138.724C3.47003 138.364 4.46003 138.184 5.64803 138.184C6.44003 138.184 7.22003 138.28 7.98803 138.472C8.75603 138.652 9.43403 138.928 10.022 139.3L9.12203 141.514C8.53403 141.178 7.94603 140.932 7.35803 140.776C6.77003 140.608 6.19403 140.524 5.63003 140.524C5.06603 140.524 4.60403 140.59 4.24403 140.722C3.88403 140.854 3.62603 141.028 3.47003 141.244C3.31403 141.448 3.23603 141.688 3.23603 141.964C3.23603 142.288 3.36803 142.552 3.63203 142.756C3.89603 142.948 4.24403 143.104 4.67603 143.224C5.10803 143.344 5.58203 143.464 6.09803 143.584C6.62603 143.704 7.14803 143.842 7.66403 143.998C8.19203 144.154 8.67203 144.364 9.10403 144.628C9.53603 144.892 9.88403 145.24 10.148 145.672C10.424 146.104 10.562 146.65 10.562 147.31C10.562 148.018 10.364 148.666 9.96803 149.254C9.57203 149.842 8.97803 150.316 8.18603 150.676C7.40603 151.036 6.41603 151.216 5.21603 151.216ZM24.7585 141.172C25.5265 141.172 26.2045 141.328 26.7925 141.64C27.3925 141.94 27.8605 142.408 28.1965 143.044C28.5445 143.668 28.7185 144.472 28.7185 145.456V151H25.9105V145.888C25.9105 145.108 25.7485 144.532 25.4245 144.16C25.1005 143.788 24.6445 143.602 24.0565 143.602C23.6485 143.602 23.2825 143.698 22.9585 143.89C22.6345 144.07 22.3825 144.346 22.2025 144.718C22.0225 145.09 21.9325 145.564 21.9325 146.14V151H19.1245V145.888C19.1245 145.108 18.9625 144.532 18.6385 144.16C18.3265 143.788 17.8765 143.602 17.2885 143.602C16.8805 143.602 16.5145 143.698 16.1905 143.89C15.8665 144.07 15.6145 144.346 15.4345 144.718C15.2545 145.09 15.1645 145.564 15.1645 146.14V151H12.3565V141.316H15.0385V143.962L14.5345 143.188C14.8705 142.528 15.3445 142.03 15.9565 141.694C16.5805 141.346 17.2885 141.172 18.0805 141.172C18.9685 141.172 19.7425 141.4 20.4025 141.856C21.0745 142.3 21.5185 142.984 21.7345 143.908L20.7445 143.638C21.0685 142.882 21.5845 142.282 22.2925 141.838C23.0125 141.394 23.8345 141.172 24.7585 141.172ZM37.1755 151V149.11L36.9955 148.696V145.312C36.9955 144.712 36.8095 144.244 36.4375 143.908C36.0775 143.572 35.5195 143.404 34.7635 143.404C34.2475 143.404 33.7375 143.488 33.2335 143.656C32.7415 143.812 32.3215 144.028 31.9735 144.304L30.9655 142.342C31.4935 141.97 32.1295 141.682 32.8735 141.478C33.6175 141.274 34.3735 141.172 35.1415 141.172C36.6175 141.172 37.7635 141.52 38.5795 142.216C39.3955 142.912 39.8035 143.998 39.8035 145.474V151H37.1755ZM34.2235 151.144C33.4675 151.144 32.8195 151.018 32.2795 150.766C31.7395 150.502 31.3255 150.148 31.0375 149.704C30.7495 149.26 30.6055 148.762 30.6055 148.21C30.6055 147.634 30.7435 147.13 31.0195 146.698C31.3075 146.266 31.7575 145.93 32.3695 145.69C32.9815 145.438 33.7795 145.312 34.7635 145.312H37.3375V146.95H35.0695C34.4095 146.95 33.9535 147.058 33.7015 147.274C33.4615 147.49 33.3415 147.76 33.3415 148.084C33.3415 148.444 33.4795 148.732 33.7555 148.948C34.0435 149.152 34.4335 149.254 34.9255 149.254C35.3935 149.254 35.8135 149.146 36.1855 148.93C36.5575 148.702 36.8275 148.372 36.9955 147.94L37.4275 149.236C37.2235 149.86 36.8515 150.334 36.3115 150.658C35.7715 150.982 35.0755 151.144 34.2235 151.144ZM42.3448 151V141.316H45.0268V144.052L44.6488 143.26C44.9368 142.576 45.3988 142.06 46.0348 141.712C46.6708 141.352 47.4448 141.172 48.3568 141.172V143.764C48.2368 143.752 48.1288 143.746 48.0328 143.746C47.9368 143.734 47.8348 143.728 47.7268 143.728C46.9588 143.728 46.3348 143.95 45.8548 144.394C45.3868 144.826 45.1528 145.504 45.1528 146.428V151H42.3448ZM54.3205 151.144C53.1805 151.144 52.2925 150.856 51.6565 150.28C51.0205 149.692 50.7025 148.822 50.7025 147.67V139.174H53.5105V147.634C53.5105 148.042 53.6185 148.36 53.8345 148.588C54.0505 148.804 54.3445 148.912 54.7165 148.912C55.1605 148.912 55.5385 148.792 55.8505 148.552L56.6065 150.532C56.3185 150.736 55.9705 150.892 55.5625 151C55.1665 151.096 54.7525 151.144 54.3205 151.144ZM49.2085 143.692V141.532H55.9225V143.692H49.2085ZM63.4784 151V138.4H69.6344C71.2184 138.4 72.4064 138.7 73.1984 139.3C74.0024 139.9 74.4044 140.692 74.4044 141.676C74.4044 142.336 74.2424 142.912 73.9184 143.404C73.5944 143.884 73.1504 144.256 72.5864 144.52C72.0224 144.784 71.3744 144.916 70.6424 144.916L70.9844 144.178C71.7764 144.178 72.4784 144.31 73.0904 144.574C73.7024 144.826 74.1764 145.204 74.5124 145.708C74.8604 146.212 75.0344 146.83 75.0344 147.562C75.0344 148.642 74.6084 149.488 73.7564 150.1C72.9044 150.7 71.6504 151 69.9944 151H63.4784ZM66.3764 148.804H69.7784C70.5344 148.804 71.1044 148.684 71.4884 148.444C71.8844 148.192 72.0824 147.796 72.0824 147.256C72.0824 146.728 71.8844 146.338 71.4884 146.086C71.1044 145.822 70.5344 145.69 69.7784 145.69H66.1604V143.566H69.2744C69.9824 143.566 70.5224 143.446 70.8944 143.206C71.2784 142.954 71.4704 142.576 71.4704 142.072C71.4704 141.58 71.2784 141.214 70.8944 140.974C70.5224 140.722 69.9824 140.596 69.2744 140.596H66.3764V148.804ZM77.044 151V141.316H79.726V144.052L79.348 143.26C79.636 142.576 80.098 142.06 80.734 141.712C81.37 141.352 82.144 141.172 83.056 141.172V143.764C82.936 143.752 82.828 143.746 82.732 143.746C82.636 143.734 82.534 143.728 82.426 143.728C81.658 143.728 81.034 143.95 80.554 144.394C80.086 144.826 79.852 145.504 79.852 146.428V151H77.044ZM90.0329 151V149.11L89.8529 148.696V145.312C89.8529 144.712 89.6669 144.244 89.2949 143.908C88.9349 143.572 88.3769 143.404 87.6209 143.404C87.1049 143.404 86.5949 143.488 86.0909 143.656C85.5989 143.812 85.1789 144.028 84.8309 144.304L83.8229 142.342C84.3509 141.97 84.9869 141.682 85.7309 141.478C86.4749 141.274 87.2309 141.172 87.9989 141.172C89.4749 141.172 90.6209 141.52 91.4369 142.216C92.2529 142.912 92.6609 143.998 92.6609 145.474V151H90.0329ZM87.0809 151.144C86.3249 151.144 85.6769 151.018 85.1369 150.766C84.5969 150.502 84.1829 150.148 83.8949 149.704C83.6069 149.26 83.4629 148.762 83.4629 148.21C83.4629 147.634 83.6009 147.13 83.8769 146.698C84.1649 146.266 84.6149 145.93 85.2269 145.69C85.8389 145.438 86.6369 145.312 87.6209 145.312H90.1949V146.95H87.9269C87.2669 146.95 86.8109 147.058 86.5589 147.274C86.3189 147.49 86.1989 147.76 86.1989 148.084C86.1989 148.444 86.3369 148.732 86.6129 148.948C86.9009 149.152 87.2909 149.254 87.7829 149.254C88.2509 149.254 88.6709 149.146 89.0429 148.93C89.4149 148.702 89.6849 148.372 89.8529 147.94L90.2849 149.236C90.0809 149.86 89.7089 150.334 89.1689 150.658C88.6289 150.982 87.9329 151.144 87.0809 151.144ZM101.088 141.172C101.856 141.172 102.54 141.328 103.14 141.64C103.752 141.94 104.232 142.408 104.58 143.044C104.928 143.668 105.102 144.472 105.102 145.456V151H102.294V145.888C102.294 145.108 102.12 144.532 101.772 144.16C101.436 143.788 100.956 143.602 100.332 143.602C99.8883 143.602 99.4863 143.698 99.1263 143.89C98.7783 144.07 98.5023 144.352 98.2983 144.736C98.1063 145.12 98.0103 145.612 98.0103 146.212V151H95.2023V141.316H97.8843V143.998L97.3803 143.188C97.7283 142.54 98.2263 142.042 98.8743 141.694C99.5223 141.346 100.26 141.172 101.088 141.172ZM111.876 151.144C110.964 151.144 110.142 150.94 109.41 150.532C108.678 150.112 108.096 149.53 107.664 148.786C107.244 148.042 107.034 147.166 107.034 146.158C107.034 145.138 107.244 144.256 107.664 143.512C108.096 142.768 108.678 142.192 109.41 141.784C110.142 141.376 110.964 141.172 111.876 141.172C112.692 141.172 113.406 141.352 114.018 141.712C114.63 142.072 115.104 142.618 115.44 143.35C115.776 144.082 115.944 145.018 115.944 146.158C115.944 147.286 115.782 148.222 115.458 148.966C115.134 149.698 114.666 150.244 114.054 150.604C113.454 150.964 112.728 151.144 111.876 151.144ZM112.362 148.84C112.818 148.84 113.232 148.732 113.604 148.516C113.976 148.3 114.27 147.994 114.486 147.598C114.714 147.19 114.828 146.71 114.828 146.158C114.828 145.594 114.714 145.114 114.486 144.718C114.27 144.322 113.976 144.016 113.604 143.8C113.232 143.584 112.818 143.476 112.362 143.476C111.894 143.476 111.474 143.584 111.102 143.8C110.73 144.016 110.43 144.322 110.202 144.718C109.986 145.114 109.878 145.594 109.878 146.158C109.878 146.71 109.986 147.19 110.202 147.598C110.43 147.994 110.73 148.3 111.102 148.516C111.474 148.732 111.894 148.84 112.362 148.84ZM114.9 151V149.02L114.954 146.14L114.774 143.278V137.644H117.582V151H114.9ZM120.181 151V141.316H122.989V151H120.181ZM121.585 139.966C121.069 139.966 120.649 139.816 120.325 139.516C120.001 139.216 119.839 138.844 119.839 138.4C119.839 137.956 120.001 137.584 120.325 137.284C120.649 136.984 121.069 136.834 121.585 136.834C122.101 136.834 122.521 136.978 122.845 137.266C123.169 137.542 123.331 137.902 123.331 138.346C123.331 138.814 123.169 139.204 122.845 139.516C122.533 139.816 122.113 139.966 121.585 139.966ZM131.481 141.172C132.249 141.172 132.933 141.328 133.533 141.64C134.145 141.94 134.625 142.408 134.973 143.044C135.321 143.668 135.495 144.472 135.495 145.456V151H132.687V145.888C132.687 145.108 132.513 144.532 132.165 144.16C131.829 143.788 131.349 143.602 130.725 143.602C130.281 143.602 129.879 143.698 129.519 143.89C129.171 144.07 128.895 144.352 128.691 144.736C128.499 145.12 128.403 145.612 128.403 146.212V151H125.595V141.316H128.277V143.998L127.773 143.188C128.121 142.54 128.619 142.042 129.267 141.694C129.915 141.346 130.653 141.172 131.481 141.172ZM142.664 154.636C141.752 154.636 140.87 154.522 140.018 154.294C139.178 154.078 138.476 153.748 137.912 153.304L139.028 151.288C139.436 151.624 139.952 151.888 140.576 152.08C141.212 152.284 141.836 152.386 142.448 152.386C143.444 152.386 144.164 152.164 144.608 151.72C145.064 151.276 145.292 150.616 145.292 149.74V148.282L145.472 145.852L145.436 143.404V141.316H148.1V149.38C148.1 151.18 147.632 152.506 146.696 153.358C145.76 154.21 144.416 154.636 142.664 154.636ZM142.232 150.532C141.332 150.532 140.516 150.34 139.784 149.956C139.064 149.56 138.482 149.014 138.038 148.318C137.606 147.61 137.39 146.788 137.39 145.852C137.39 144.904 137.606 144.082 138.038 143.386C138.482 142.678 139.064 142.132 139.784 141.748C140.516 141.364 141.332 141.172 142.232 141.172C143.048 141.172 143.768 141.34 144.392 141.676C145.016 142 145.502 142.51 145.85 143.206C146.198 143.89 146.372 144.772 146.372 145.852C146.372 146.92 146.198 147.802 145.85 148.498C145.502 149.182 145.016 149.692 144.392 150.028C143.768 150.364 143.048 150.532 142.232 150.532ZM142.79 148.228C143.282 148.228 143.72 148.132 144.104 147.94C144.488 147.736 144.788 147.454 145.004 147.094C145.22 146.734 145.328 146.32 145.328 145.852C145.328 145.372 145.22 144.958 145.004 144.61C144.788 144.25 144.488 143.974 144.104 143.782C143.72 143.578 143.282 143.476 142.79 143.476C142.298 143.476 141.86 143.578 141.476 143.782C141.092 143.974 140.786 144.25 140.558 144.61C140.342 144.958 140.234 145.372 140.234 145.852C140.234 146.32 140.342 146.734 140.558 147.094C140.786 147.454 141.092 147.736 141.476 147.94C141.86 148.132 142.298 148.228 142.79 148.228Z" fill="#0057A4"/>
<path d="M65.5693 28.1751C65.2089 28.6233 64.9013 29.3089 64.708 30.0735C64.5849 30.5569 64.5498 31.0315 64.5585 32.3411V33.9935L64.3388 33.7034C63.8554 33.0706 62.871 32.1302 62.2998 31.7435C61.4209 31.1546 60.7265 30.8909 59.9179 30.8382L59.2412 30.7942L59.1796 31.0491C59.0214 31.6731 59.5136 32.9212 60.3837 34.0726C61.2539 35.2239 63.0556 36.5686 64.4619 37.1224C64.998 37.3245 65.2089 37.3597 66.0439 37.3597C66.9404 37.3685 67.0546 37.3509 67.6435 37.096C68.9707 36.5159 70.8427 35.0218 71.7128 33.844C72.3808 32.9563 72.8291 31.7786 72.75 31.1282C72.7236 30.8733 72.706 30.8645 72.205 30.8382C71.1416 30.7854 69.832 31.4534 68.5839 32.7015C68.1445 33.1409 67.6787 33.6419 67.5468 33.8089L67.3183 34.1165L67.3798 33.5013C67.5029 32.3938 67.4414 30.847 67.2392 30.0735C66.914 28.8519 66.3339 27.8323 65.9648 27.8323C65.8945 27.8323 65.7187 27.9905 65.5693 28.1751Z" fill="#0074BA"/>
<path d="M72.9434 36.2874C71.1768 36.5071 68.8213 38.2473 67.7666 40.093C67.2568 40.9719 66.9932 41.7893 66.8789 42.7825C66.8086 43.345 66.791 47.5725 66.8086 56.2649C66.835 68.2883 66.8437 68.9475 67.0019 69.4046C67.4502 70.7405 68.2588 71.7864 69.3398 72.4104C69.6475 72.595 70.4824 72.9641 71.1855 73.2366C74.1738 74.4055 75.6768 75.4075 77.5576 77.4993C78.999 79.1077 79.7197 79.6087 81.082 79.9514C82.4268 80.2942 83.833 80.1096 85.2041 79.4153C85.5908 79.2131 86.3994 78.7473 87.0059 78.3782C87.6123 78.0003 88.4736 77.5081 88.9219 77.2708C89.8184 76.8137 90.1084 76.5149 90.2402 75.926C90.3457 75.469 90.2578 75.0383 89.9678 74.5989C89.6426 74.1067 89.2119 73.9309 88.3594 73.9309C87.709 73.9309 87.6035 73.9573 87.0059 74.2737C86.6455 74.4583 85.9336 74.8714 85.4238 75.1878C83.5518 76.3479 82.6377 76.6643 81.7676 76.4446C81.1435 76.2864 80.7305 75.97 80.1416 75.1878C79.834 74.7835 79.21 74.0803 78.7441 73.6145L77.9092 72.762L78.832 72.718C83.2793 72.4631 87.1728 70.9602 90.2754 68.2796C92.2969 66.5305 93.9141 64.1487 94.6084 61.9075C95.0039 60.6331 94.8105 59.763 94.0283 59.2708C93.29 58.8137 92.3057 58.8665 91.6992 59.4026C91.3037 59.7542 91.1631 60.0354 90.9082 60.9846C90.2842 63.3137 88.1484 65.845 85.6172 67.2688C84.9756 67.6292 84.9404 67.6116 84.6768 66.9436C84.4482 66.3547 84.4043 65.344 84.5889 64.6585C85.0371 62.9094 86.918 60.8001 88.8867 59.8245C89.5635 59.4905 89.7305 59.3674 89.9766 58.9895C90.249 58.594 90.2754 58.4973 90.2402 58.0491C90.1963 57.4514 89.9326 57.0208 89.4228 56.7307C89.1416 56.5725 88.9307 56.5374 88.4033 56.5286C87.7969 56.5286 87.665 56.5637 86.9971 56.8977C85.248 57.759 83.165 59.7278 82.1455 61.4768C81.6885 62.2678 81.2314 63.4104 81.0732 64.1751C80.7744 65.6428 80.9502 67.4182 81.5127 68.5256C81.6357 68.7805 81.7236 69.0003 81.706 69.0178C81.6006 69.1321 80.2295 69.3255 79.2187 69.3694C75.9668 69.5364 73.7959 68.6311 72.416 66.5393C71.792 65.5901 71.3789 64.1575 71.1416 62.1096C71.0713 61.5559 71.0273 61.0901 71.0361 61.0813C71.0449 61.0725 71.6953 60.9671 72.4775 60.844C78.5244 59.9036 83.1299 57.9524 85.9863 55.1223C87.1553 53.9622 87.999 52.5999 88.1221 51.6506C88.2451 50.7717 87.6035 49.9016 86.707 49.7171C85.6523 49.4973 84.7207 50.0686 84.4307 51.0881C84.3516 51.3782 84.167 51.7913 84.0351 52.0022C83.7451 52.4592 82.9893 53.2063 82.4004 53.6282C82.0137 53.9006 80.8447 54.551 80.7305 54.551C80.7041 54.551 80.6777 54.261 80.6777 53.9094C80.6777 53.303 80.7217 53.0657 81.0732 51.8704C81.1963 51.4309 81.2051 51.2727 81.126 50.9739C80.8623 50.0071 79.834 49.4973 78.7266 49.8049C78.3047 49.928 77.6543 50.6399 77.4785 51.1936C77.0127 52.6262 77.1094 54.4983 77.7246 55.9661C77.7773 56.0803 77.5928 56.1594 76.749 56.4231C74.8945 57.0032 72.1172 57.6096 71.1504 57.6448C70.7461 57.6624 70.6318 57.6448 70.6143 57.5393C70.5791 57.2844 70.4824 52.9954 70.4736 51.2551L70.4648 49.5061L71.0273 49.3831C73.8838 48.7942 75.8877 48.0383 77.5752 46.9485C78.6475 46.2454 79.1309 45.8235 79.7109 45.0501C80.6074 43.846 81.0732 42.3694 80.8535 41.3938C80.6074 40.2688 79.456 39.6887 78.2959 40.093C77.5488 40.3567 77.1182 40.9807 76.9951 41.9651C76.8984 42.7385 76.7578 42.9846 76.1074 43.5911C75.1055 44.5227 73.4707 45.3049 71.581 45.7708C71.001 45.9114 70.4824 46.0256 70.4209 46.0256C70.2627 46.0256 70.2715 43.969 70.4385 43.1868C70.6143 42.343 71.1064 41.4553 71.7041 40.9104C72.2226 40.4358 73.2685 39.8733 73.6465 39.8733C73.9453 39.8733 74.7012 39.5042 74.9385 39.2493C75.5801 38.5549 75.5449 37.3596 74.8594 36.7444C74.3672 36.2962 73.8398 36.1643 72.9434 36.2874Z" fill="#0074BA"/>
<path d="M57.6064 36.4367C56.9033 36.7531 56.4287 37.5793 56.543 38.2824C56.6133 38.7043 57.0264 39.3459 57.3604 39.5393C57.5098 39.6272 57.9229 39.7854 58.2832 39.8821C59.2061 40.1369 59.8652 40.5237 60.4365 41.1389C61.3242 42.0969 61.6846 43.2307 61.6934 45.0764C61.6934 45.7795 61.667 46.0256 61.5879 46.0256C61.2891 46.0256 59.5312 45.5422 58.793 45.261C57.6416 44.8303 57.1934 44.593 56.4023 44.0217C55.541 43.4065 55.1279 42.8967 55.0576 42.343C54.917 41.218 54.8379 40.9895 54.3984 40.5676C53.3262 39.5217 51.5947 39.926 51.1465 41.3147C50.9004 42.0969 51.2871 43.6526 51.999 44.7072C52.957 46.1311 54.8818 47.467 57.2197 48.3371C58.0898 48.6623 59.9795 49.1809 60.9814 49.3742L61.5439 49.4797L61.4912 53.5666C61.4561 55.8166 61.4121 57.6799 61.3857 57.7063C61.3154 57.7766 59.707 57.4953 58.0811 57.135C56.9385 56.8889 54.3281 56.177 54.249 56.0979C54.2402 56.0891 54.3018 55.8781 54.3896 55.6408C54.917 54.261 54.8818 51.8879 54.3193 50.7893C53.959 50.0949 53.3262 49.717 52.5352 49.717C51.6123 49.7258 50.9443 50.2707 50.8301 51.1233C50.7949 51.4309 50.8301 51.6594 51.0146 52.134C51.1816 52.591 51.2607 52.9865 51.2959 53.6457C51.3223 54.1467 51.3223 54.551 51.2871 54.551C51.1465 54.551 49.9072 53.883 49.4326 53.5403C49.1338 53.3293 48.6592 52.9074 48.3691 52.591C47.9033 52.0989 47.8066 51.9319 47.5957 51.2639C47.2266 50.1301 46.708 49.6906 45.6885 49.6906C44.7744 49.6819 44.0801 50.2004 43.8516 51.0354C43.7285 51.4836 43.8779 52.1428 44.2646 52.925C45.4336 55.2805 48.2197 57.3899 52.2451 58.9719C54.3721 59.8069 56.4111 60.343 59.1973 60.8L60.9199 61.0901L60.8584 61.7053C60.6826 63.5598 60.2607 65.2737 59.7334 66.2844C59.3203 67.0842 58.125 68.2356 57.2988 68.6399C55.6377 69.4485 53.4492 69.5979 50.4873 69.1057C50.2676 69.0705 50.2764 69.0266 50.5137 68.4992C50.8564 67.7346 50.9883 67.1018 51.0322 65.8889C51.0674 64.8166 51.0498 64.6145 50.8477 63.8235C50.3994 62.1008 49.4326 60.5627 47.8154 59.0071C46.7607 57.9963 45.917 57.3811 44.915 56.8977C44.2646 56.5813 44.0977 56.5373 43.5527 56.5285C43.043 56.5285 42.8584 56.5725 42.5332 56.7483C42.0586 57.0207 41.7686 57.425 41.6895 57.9436C41.6455 58.2776 41.6719 58.4182 41.8828 58.8401C42.1289 59.3147 42.1904 59.3674 42.9902 59.7893C44.0186 60.3342 44.5635 60.7385 45.46 61.6526C46.5586 62.76 47.1475 63.7004 47.4287 64.7727C47.6133 65.511 47.543 66.425 47.2441 67.0842L47.0156 67.5764L46.3564 67.216C44.4404 66.1877 42.3398 63.9729 41.4873 62.092C41.3379 61.7756 41.1445 61.1867 41.0391 60.7824C40.8193 59.9211 40.5557 59.4905 40.0723 59.218C38.7539 58.4797 37.1719 59.3674 37.1719 60.844C37.1719 61.7756 38.0508 63.8498 39.1143 65.4231C39.8877 66.5569 41.5752 68.2971 42.7529 69.1672C45.5391 71.2239 48.7559 72.3576 52.7461 72.674L54.0908 72.7795L53.168 73.7024C52.6582 74.2121 51.9814 74.9504 51.6738 75.3283C50.9531 76.216 50.4873 76.4797 49.6523 76.4709C48.9756 76.4709 48.2988 76.2424 47.4639 75.7414C44.3877 73.9133 44.4229 73.9309 43.5879 73.9309C42.8145 73.9309 42.3926 74.0979 42.0586 74.5461C41.3555 75.4602 41.6807 76.6291 42.7793 77.1389C43.0078 77.2444 43.8955 77.7453 44.7568 78.2551C47.5078 79.8811 48.3604 80.1799 49.916 80.1008C51.4102 80.0217 52.4912 79.4856 53.6865 78.2463C54.0996 77.8156 54.8555 77.0422 55.3652 76.5237C56.7979 75.0735 58.3184 74.1418 60.8145 73.1926C61.4648 72.9377 62.2734 72.5774 62.6074 72.3752C63.9346 71.593 64.8223 70.301 65.0332 68.8684C65.1123 68.3147 65.1299 64.9309 65.1035 55.2981C65.0771 43.1252 65.0684 42.4397 64.9102 41.8947C64.6904 41.1301 64.251 40.1809 63.8203 39.5569C63.46 39.0207 62.4492 38.0012 61.8252 37.5266C60.4102 36.4543 58.5996 35.9797 57.6064 36.4367Z" fill="#0074BA"/>
<path d="M64.2158 74.7746C60.9199 75.2228 57.8437 76.9718 56.0068 79.4328L55.4443 80.1886L54.5742 80.2502C51.8935 80.4347 49.7666 81.8498 50.1972 83.1681C50.3642 83.6779 50.7949 83.9328 51.4101 83.8888C51.8496 83.8537 51.9551 83.8097 52.5 83.3527C53.0625 82.8957 54.2402 82.3068 54.3545 82.4299C54.3808 82.4562 54.3281 82.6496 54.2314 82.8693C54.0732 83.2384 53.6865 84.4777 53.5722 84.9787C53.5459 85.1105 53.5635 85.4181 53.6162 85.6642C53.8711 86.8595 55.3564 87.3693 56.3408 86.6047C56.789 86.2531 56.9472 85.9718 57.334 84.7238C58.1514 82.0871 59.7422 80.1447 62.001 79.0021C62.5898 78.7121 64.1631 78.1935 64.4795 78.1935H64.6816V80.5138C64.6816 81.7883 64.708 82.8957 64.7344 82.9748C64.7695 83.0627 64.7431 83.1154 64.664 83.1154C64.5937 83.1154 64.2949 83.2297 64.0049 83.3791C62.7832 83.9855 61.6055 85.7345 61.6055 86.9299C61.6055 87.923 62.5019 88.5558 63.3896 88.1779C63.8555 87.9845 64.0049 87.7384 64.2422 86.7541C64.5058 85.6818 65.5605 85.1281 66.6504 85.4884C67.1426 85.6467 67.626 86.2531 67.8369 86.965C68.1357 87.967 68.5928 88.3713 69.3223 88.2658C70.1221 88.1603 70.456 87.6506 70.3681 86.6926C70.2451 85.339 68.7949 83.5373 67.5381 83.1945L67.2305 83.1066V80.6369V78.1759L67.6435 78.2375C68.2324 78.3254 69.4629 78.7736 70.2187 79.1779C72.6445 80.4699 74.0859 82.4299 74.9648 85.6467C75.1494 86.3498 75.9931 86.9826 76.7314 86.9826C77.1094 86.9826 77.5928 86.8068 77.874 86.5695C78.1992 86.297 78.4717 85.7345 78.4805 85.3566C78.4805 85.0578 78.0146 83.3527 77.7685 82.7902L77.6103 82.4123L77.8476 82.465C78.3135 82.5705 79.1484 83.0187 79.623 83.4142C80.1328 83.8449 80.4844 83.9592 81.0117 83.8801C81.4775 83.8009 81.75 83.4845 81.8027 82.9484C81.8555 82.3771 81.7148 82.0519 81.2402 81.6301C80.2822 80.7951 78.5596 80.215 76.9951 80.215C76.582 80.215 76.5732 80.2062 76.2305 79.714C75.7295 78.9845 74.4199 77.7013 73.5234 77.0773C72.0996 76.0754 70.3594 75.3195 68.5576 74.9328C67.582 74.7306 65.1914 74.634 64.2158 74.7746Z" fill="#0074BA"/>
<defs>
<filter id="filter0_d_1366_63" x="6" y="0" width="135" height="135" filterUnits="userSpaceOnUse" color-interpolation-filters="sRGB">
<feFlood flood-opacity="0" result="BackgroundImageFix"/>
<feColorMatrix in="SourceAlpha" type="matrix" values="0 0 0 0 0 0 0 0 0 0 0 0 0 0 0 0 0 0 127 0" result="hardAlpha"/>
<feOffset dx="10" dy="10"/>
<feGaussianBlur stdDeviation="2.5"/>
<feComposite in2="hardAlpha" operator="out"/>
<feColorMatrix type="matrix" values="0 0 0 0 0 0 0 0 0 0 0 0 0 0 0 0 0 0 0.3 0"/>
<feBlend mode="normal" in2="BackgroundImageFix" result="effect1_dropShadow_1366_63"/>
<feBlend mode="normal" in="SourceGraphic" in2="effect1_dropShadow_1366_63" result="shape"/>
</filter>
</defs>
</svg>
