<svg width="199" height="199" viewBox="0 0 199 199" fill="none" xmlns="http://www.w3.org/2000/svg">
<g filter="url(#filter0_d_1366_34)">
<circle cx="99" cy="100" r="60" fill="#F5F5F5"/>
<circle cx="99" cy="100" r="58.5" stroke="#0057A4" stroke-width="3"/>
</g>
<path d="M45.1486 195.216C44.1406 195.216 43.1746 195.084 42.2506 194.82C41.3266 194.544 40.5826 194.19 40.0186 193.758L41.0086 191.562C41.5486 191.946 42.1846 192.264 42.9166 192.516C43.6606 192.756 44.4106 192.876 45.1666 192.876C45.7426 192.876 46.2046 192.822 46.5526 192.714C46.9126 192.594 47.1766 192.432 47.3446 192.228C47.5126 192.024 47.5966 191.79 47.5966 191.526C47.5966 191.19 47.4646 190.926 47.2006 190.734C46.9366 190.53 46.5886 190.368 46.1566 190.248C45.7246 190.116 45.2446 189.996 44.7166 189.888C44.2006 189.768 43.6786 189.624 43.1506 189.456C42.6346 189.288 42.1606 189.072 41.7286 188.808C41.2966 188.544 40.9426 188.196 40.6666 187.764C40.4026 187.332 40.2706 186.78 40.2706 186.108C40.2706 185.388 40.4626 184.734 40.8466 184.146C41.2426 183.546 41.8306 183.072 42.6106 182.724C43.4026 182.364 44.3926 182.184 45.5806 182.184C46.3726 182.184 47.1526 182.28 47.9206 182.472C48.6886 182.652 49.3666 182.928 49.9546 183.3L49.0546 185.514C48.4666 185.178 47.8786 184.932 47.2906 184.776C46.7026 184.608 46.1266 184.524 45.5626 184.524C44.9986 184.524 44.5366 184.59 44.1766 184.722C43.8166 184.854 43.5586 185.028 43.4026 185.244C43.2466 185.448 43.1686 185.688 43.1686 185.964C43.1686 186.288 43.3006 186.552 43.5646 186.756C43.8286 186.948 44.1766 187.104 44.6086 187.224C45.0406 187.344 45.5146 187.464 46.0306 187.584C46.5586 187.704 47.0806 187.842 47.5966 187.998C48.1246 188.154 48.6046 188.364 49.0366 188.628C49.4686 188.892 49.8166 189.24 50.0806 189.672C50.3566 190.104 50.4946 190.65 50.4946 191.31C50.4946 192.018 50.2966 192.666 49.9006 193.254C49.5046 193.842 48.9106 194.316 48.1186 194.676C47.3386 195.036 46.3486 195.216 45.1486 195.216ZM64.6912 185.172C65.4592 185.172 66.1372 185.328 66.7252 185.64C67.3252 185.94 67.7932 186.408 68.1292 187.044C68.4772 187.668 68.6512 188.472 68.6512 189.456V195H65.8432V189.888C65.8432 189.108 65.6812 188.532 65.3572 188.16C65.0332 187.788 64.5772 187.602 63.9892 187.602C63.5812 187.602 63.2152 187.698 62.8912 187.89C62.5672 188.07 62.3152 188.346 62.1352 188.718C61.9552 189.09 61.8652 189.564 61.8652 190.14V195H59.0572V189.888C59.0572 189.108 58.8952 188.532 58.5712 188.16C58.2592 187.788 57.8092 187.602 57.2212 187.602C56.8132 187.602 56.4472 187.698 56.1232 187.89C55.7992 188.07 55.5472 188.346 55.3672 188.718C55.1872 189.09 55.0972 189.564 55.0972 190.14V195H52.2892V185.316H54.9712V187.962L54.4672 187.188C54.8032 186.528 55.2772 186.03 55.8892 185.694C56.5132 185.346 57.2212 185.172 58.0132 185.172C58.9012 185.172 59.6752 185.4 60.3352 185.856C61.0072 186.3 61.4512 186.984 61.6672 187.908L60.6772 187.638C61.0012 186.882 61.5172 186.282 62.2252 185.838C62.9452 185.394 63.7672 185.172 64.6912 185.172ZM77.1081 195V193.11L76.9281 192.696V189.312C76.9281 188.712 76.7421 188.244 76.3701 187.908C76.0101 187.572 75.4521 187.404 74.6961 187.404C74.1801 187.404 73.6701 187.488 73.1661 187.656C72.6741 187.812 72.2541 188.028 71.9061 188.304L70.8981 186.342C71.4261 185.97 72.0621 185.682 72.8061 185.478C73.5501 185.274 74.3061 185.172 75.0741 185.172C76.5501 185.172 77.6961 185.52 78.5121 186.216C79.3281 186.912 79.7361 187.998 79.7361 189.474V195H77.1081ZM74.1561 195.144C73.4001 195.144 72.7521 195.018 72.2121 194.766C71.6721 194.502 71.2581 194.148 70.9701 193.704C70.6821 193.26 70.5381 192.762 70.5381 192.21C70.5381 191.634 70.6761 191.13 70.9521 190.698C71.2401 190.266 71.6901 189.93 72.3021 189.69C72.9141 189.438 73.7121 189.312 74.6961 189.312H77.2701V190.95H75.0021C74.3421 190.95 73.8861 191.058 73.6341 191.274C73.3941 191.49 73.2741 191.76 73.2741 192.084C73.2741 192.444 73.4121 192.732 73.6881 192.948C73.9761 193.152 74.3661 193.254 74.8581 193.254C75.3261 193.254 75.7461 193.146 76.1181 192.93C76.4901 192.702 76.7601 192.372 76.9281 191.94L77.3601 193.236C77.1561 193.86 76.7841 194.334 76.2441 194.658C75.7041 194.982 75.0081 195.144 74.1561 195.144ZM82.2774 195V185.316H84.9594V188.052L84.5814 187.26C84.8694 186.576 85.3314 186.06 85.9674 185.712C86.6034 185.352 87.3774 185.172 88.2894 185.172V187.764C88.1694 187.752 88.0614 187.746 87.9654 187.746C87.8694 187.734 87.7674 187.728 87.6594 187.728C86.8914 187.728 86.2674 187.95 85.7874 188.394C85.3194 188.826 85.0854 189.504 85.0854 190.428V195H82.2774ZM94.2531 195.144C93.1131 195.144 92.2251 194.856 91.5891 194.28C90.9531 193.692 90.6351 192.822 90.6351 191.67V183.174H93.4431V191.634C93.4431 192.042 93.5511 192.36 93.7671 192.588C93.9831 192.804 94.2771 192.912 94.6491 192.912C95.0931 192.912 95.4711 192.792 95.7831 192.552L96.5391 194.532C96.2511 194.736 95.9031 194.892 95.4951 195C95.0991 195.096 94.6851 195.144 94.2531 195.144ZM89.1411 187.692V185.532H95.8551V187.692H89.1411ZM103.411 195V182.4H106.327V192.624H112.645V195H103.411ZM114.076 195V185.316H116.884V195H114.076ZM115.48 183.966C114.964 183.966 114.544 183.816 114.22 183.516C113.896 183.216 113.734 182.844 113.734 182.4C113.734 181.956 113.896 181.584 114.22 181.284C114.544 180.984 114.964 180.834 115.48 180.834C115.996 180.834 116.416 180.978 116.74 181.266C117.064 181.542 117.226 181.902 117.226 182.346C117.226 182.814 117.064 183.204 116.74 183.516C116.428 183.816 116.008 183.966 115.48 183.966ZM122.118 195L118.05 185.316H120.948L124.332 193.65H122.892L126.402 185.316H129.102L125.016 195H122.118ZM130.248 195V185.316H133.056V195H130.248ZM131.652 183.966C131.136 183.966 130.716 183.816 130.392 183.516C130.068 183.216 129.906 182.844 129.906 182.4C129.906 181.956 130.068 181.584 130.392 181.284C130.716 180.984 131.136 180.834 131.652 180.834C132.168 180.834 132.588 180.978 132.912 181.266C133.236 181.542 133.398 181.902 133.398 182.346C133.398 182.814 133.236 183.204 132.912 183.516C132.6 183.816 132.18 183.966 131.652 183.966ZM141.548 185.172C142.316 185.172 143 185.328 143.6 185.64C144.212 185.94 144.692 186.408 145.04 187.044C145.388 187.668 145.562 188.472 145.562 189.456V195H142.754V189.888C142.754 189.108 142.58 188.532 142.232 188.16C141.896 187.788 141.416 187.602 140.792 187.602C140.348 187.602 139.946 187.698 139.586 187.89C139.238 188.07 138.962 188.352 138.758 188.736C138.566 189.12 138.47 189.612 138.47 190.212V195H135.662V185.316H138.344V187.998L137.84 187.188C138.188 186.54 138.686 186.042 139.334 185.694C139.982 185.346 140.72 185.172 141.548 185.172ZM152.732 198.636C151.82 198.636 150.938 198.522 150.086 198.294C149.246 198.078 148.544 197.748 147.98 197.304L149.096 195.288C149.504 195.624 150.02 195.888 150.644 196.08C151.28 196.284 151.904 196.386 152.516 196.386C153.512 196.386 154.232 196.164 154.676 195.72C155.132 195.276 155.36 194.616 155.36 193.74V192.282L155.54 189.852L155.504 187.404V185.316H158.168V193.38C158.168 195.18 157.7 196.506 156.764 197.358C155.828 198.21 154.484 198.636 152.732 198.636ZM152.3 194.532C151.4 194.532 150.584 194.34 149.852 193.956C149.132 193.56 148.55 193.014 148.106 192.318C147.674 191.61 147.458 190.788 147.458 189.852C147.458 188.904 147.674 188.082 148.106 187.386C148.55 186.678 149.132 186.132 149.852 185.748C150.584 185.364 151.4 185.172 152.3 185.172C153.116 185.172 153.836 185.34 154.46 185.676C155.084 186 155.57 186.51 155.918 187.206C156.266 187.89 156.44 188.772 156.44 189.852C156.44 190.92 156.266 191.802 155.918 192.498C155.57 193.182 155.084 193.692 154.46 194.028C153.836 194.364 153.116 194.532 152.3 194.532ZM152.858 192.228C153.35 192.228 153.788 192.132 154.172 191.94C154.556 191.736 154.856 191.454 155.072 191.094C155.288 190.734 155.396 190.32 155.396 189.852C155.396 189.372 155.288 188.958 155.072 188.61C154.856 188.25 154.556 187.974 154.172 187.782C153.788 187.578 153.35 187.476 152.858 187.476C152.366 187.476 151.928 187.578 151.544 187.782C151.16 187.974 150.854 188.25 150.626 188.61C150.41 188.958 150.302 189.372 150.302 189.852C150.302 190.32 150.41 190.734 150.626 191.094C150.854 191.454 151.16 191.736 151.544 191.94C151.928 192.132 152.366 192.228 152.858 192.228Z" fill="#0074BA"/>
<path d="M75 92.5L100 75L125 92.5V120C125 121.326 124.415 122.598 123.373 123.536C122.331 124.473 120.918 125 119.444 125H80.5556C79.0821 125 77.6691 124.473 76.6272 123.536C75.5853 122.598 75 121.326 75 120V92.5Z" stroke="#0074BA" stroke-width="7"/>
<defs>
<filter id="filter0_d_1366_34" x="39" y="40" width="135" height="135" filterUnits="userSpaceOnUse" color-interpolation-filters="sRGB">
<feFlood flood-opacity="0" result="BackgroundImageFix"/>
<feColorMatrix in="SourceAlpha" type="matrix" values="0 0 0 0 0 0 0 0 0 0 0 0 0 0 0 0 0 0 127 0" result="hardAlpha"/>
<feOffset dx="10" dy="10"/>
<feGaussianBlur stdDeviation="2.5"/>
<feComposite in2="hardAlpha" operator="out"/>
<feColorMatrix type="matrix" values="0 0 0 0 0 0 0 0 0 0 0 0 0 0 0 0 0 0 0.3 0"/>
<feBlend mode="normal" in2="BackgroundImageFix" result="effect1_dropShadow_1366_34"/>
<feBlend mode="normal" in="SourceGraphic" in2="effect1_dropShadow_1366_34" result="shape"/>
</filter>
</defs>
</svg>
