<svg width="199" height="199" viewBox="0 0 199 199" fill="none" xmlns="http://www.w3.org/2000/svg">
<g filter="url(#filter0_d_1366_45)">
<circle cx="99" cy="100" r="60" fill="#F5F5F5"/>
<circle cx="99" cy="100" r="58.5" stroke="#0057A4" stroke-width="3"/>
</g>
<path d="M39.4182 195.216C38.4102 195.216 37.4442 195.084 36.5202 194.82C35.5962 194.544 34.8522 194.19 34.2882 193.758L35.2782 191.562C35.8182 191.946 36.4542 192.264 37.1862 192.516C37.9302 192.756 38.6802 192.876 39.4362 192.876C40.0122 192.876 40.4742 192.822 40.8222 192.714C41.1822 192.594 41.4462 192.432 41.6142 192.228C41.7822 192.024 41.8662 191.79 41.8662 191.526C41.8662 191.19 41.7342 190.926 41.4702 190.734C41.2062 190.53 40.8582 190.368 40.4262 190.248C39.9942 190.116 39.5142 189.996 38.9862 189.888C38.4702 189.768 37.9482 189.624 37.4202 189.456C36.9042 189.288 36.4302 189.072 35.9982 188.808C35.5662 188.544 35.2122 188.196 34.9362 187.764C34.6722 187.332 34.5402 186.78 34.5402 186.108C34.5402 185.388 34.7322 184.734 35.1162 184.146C35.5122 183.546 36.1002 183.072 36.8802 182.724C37.6722 182.364 38.6622 182.184 39.8502 182.184C40.6422 182.184 41.4222 182.28 42.1902 182.472C42.9582 182.652 43.6362 182.928 44.2242 183.3L43.3242 185.514C42.7362 185.178 42.1482 184.932 41.5602 184.776C40.9722 184.608 40.3962 184.524 39.8322 184.524C39.2682 184.524 38.8062 184.59 38.4462 184.722C38.0862 184.854 37.8282 185.028 37.6722 185.244C37.5162 185.448 37.4382 185.688 37.4382 185.964C37.4382 186.288 37.5702 186.552 37.8342 186.756C38.0982 186.948 38.4462 187.104 38.8782 187.224C39.3102 187.344 39.7842 187.464 40.3002 187.584C40.8282 187.704 41.3502 187.842 41.8662 187.998C42.3942 188.154 42.8742 188.364 43.3062 188.628C43.7382 188.892 44.0862 189.24 44.3502 189.672C44.6262 190.104 44.7642 190.65 44.7642 191.31C44.7642 192.018 44.5662 192.666 44.1702 193.254C43.7742 193.842 43.1802 194.316 42.3882 194.676C41.6082 195.036 40.6182 195.216 39.4182 195.216ZM58.9607 185.172C59.7287 185.172 60.4067 185.328 60.9947 185.64C61.5947 185.94 62.0627 186.408 62.3987 187.044C62.7467 187.668 62.9207 188.472 62.9207 189.456V195H60.1127V189.888C60.1127 189.108 59.9507 188.532 59.6267 188.16C59.3027 187.788 58.8467 187.602 58.2587 187.602C57.8507 187.602 57.4847 187.698 57.1607 187.89C56.8367 188.07 56.5847 188.346 56.4047 188.718C56.2247 189.09 56.1347 189.564 56.1347 190.14V195H53.3267V189.888C53.3267 189.108 53.1647 188.532 52.8407 188.16C52.5287 187.788 52.0787 187.602 51.4907 187.602C51.0827 187.602 50.7167 187.698 50.3927 187.89C50.0687 188.07 49.8167 188.346 49.6367 188.718C49.4567 189.09 49.3667 189.564 49.3667 190.14V195H46.5587V185.316H49.2407V187.962L48.7367 187.188C49.0727 186.528 49.5467 186.03 50.1587 185.694C50.7827 185.346 51.4907 185.172 52.2827 185.172C53.1707 185.172 53.9447 185.4 54.6047 185.856C55.2767 186.3 55.7207 186.984 55.9367 187.908L54.9467 187.638C55.2707 186.882 55.7867 186.282 56.4947 185.838C57.2147 185.394 58.0367 185.172 58.9607 185.172ZM71.3776 195V193.11L71.1976 192.696V189.312C71.1976 188.712 71.0116 188.244 70.6396 187.908C70.2796 187.572 69.7216 187.404 68.9656 187.404C68.4496 187.404 67.9396 187.488 67.4356 187.656C66.9436 187.812 66.5236 188.028 66.1756 188.304L65.1676 186.342C65.6956 185.97 66.3316 185.682 67.0756 185.478C67.8196 185.274 68.5756 185.172 69.3436 185.172C70.8196 185.172 71.9656 185.52 72.7816 186.216C73.5976 186.912 74.0056 187.998 74.0056 189.474V195H71.3776ZM68.4256 195.144C67.6696 195.144 67.0216 195.018 66.4816 194.766C65.9416 194.502 65.5276 194.148 65.2396 193.704C64.9516 193.26 64.8076 192.762 64.8076 192.21C64.8076 191.634 64.9456 191.13 65.2216 190.698C65.5096 190.266 65.9596 189.93 66.5716 189.69C67.1836 189.438 67.9816 189.312 68.9656 189.312H71.5396V190.95H69.2716C68.6116 190.95 68.1556 191.058 67.9036 191.274C67.6636 191.49 67.5436 191.76 67.5436 192.084C67.5436 192.444 67.6816 192.732 67.9576 192.948C68.2456 193.152 68.6356 193.254 69.1276 193.254C69.5956 193.254 70.0156 193.146 70.3876 192.93C70.7596 192.702 71.0296 192.372 71.1976 191.94L71.6296 193.236C71.4256 193.86 71.0536 194.334 70.5136 194.658C69.9736 194.982 69.2776 195.144 68.4256 195.144ZM76.547 195V185.316H79.229V188.052L78.851 187.26C79.139 186.576 79.601 186.06 80.237 185.712C80.873 185.352 81.647 185.172 82.559 185.172V187.764C82.439 187.752 82.331 187.746 82.235 187.746C82.139 187.734 82.037 187.728 81.929 187.728C81.161 187.728 80.537 187.95 80.057 188.394C79.589 188.826 79.355 189.504 79.355 190.428V195H76.547ZM88.5226 195.144C87.3826 195.144 86.4946 194.856 85.8586 194.28C85.2226 193.692 84.9046 192.822 84.9046 191.67V183.174H87.7126V191.634C87.7126 192.042 87.8206 192.36 88.0366 192.588C88.2526 192.804 88.5466 192.912 88.9186 192.912C89.3626 192.912 89.7406 192.792 90.0526 192.552L90.8086 194.532C90.5206 194.736 90.1726 194.892 89.7646 195C89.3686 195.096 88.9546 195.144 88.5226 195.144ZM83.4106 187.692V185.532H90.1246V187.692H83.4106ZM101.821 195.216C100.813 195.216 99.8465 195.084 98.9225 194.82C97.9985 194.544 97.2545 194.19 96.6905 193.758L97.6805 191.562C98.2205 191.946 98.8565 192.264 99.5885 192.516C100.333 192.756 101.083 192.876 101.839 192.876C102.415 192.876 102.877 192.822 103.225 192.714C103.585 192.594 103.849 192.432 104.017 192.228C104.185 192.024 104.269 191.79 104.269 191.526C104.269 191.19 104.137 190.926 103.873 190.734C103.609 190.53 103.261 190.368 102.829 190.248C102.397 190.116 101.917 189.996 101.389 189.888C100.873 189.768 100.351 189.624 99.8225 189.456C99.3065 189.288 98.8325 189.072 98.4005 188.808C97.9685 188.544 97.6145 188.196 97.3385 187.764C97.0745 187.332 96.9425 186.78 96.9425 186.108C96.9425 185.388 97.1345 184.734 97.5185 184.146C97.9145 183.546 98.5025 183.072 99.2825 182.724C100.075 182.364 101.065 182.184 102.253 182.184C103.045 182.184 103.825 182.28 104.593 182.472C105.361 182.652 106.039 182.928 106.627 183.3L105.727 185.514C105.139 185.178 104.551 184.932 103.963 184.776C103.375 184.608 102.799 184.524 102.235 184.524C101.671 184.524 101.209 184.59 100.849 184.722C100.489 184.854 100.231 185.028 100.075 185.244C99.9185 185.448 99.8405 185.688 99.8405 185.964C99.8405 186.288 99.9725 186.552 100.237 186.756C100.501 186.948 100.849 187.104 101.281 187.224C101.713 187.344 102.187 187.464 102.703 187.584C103.231 187.704 103.753 187.842 104.269 187.998C104.797 188.154 105.277 188.364 105.709 188.628C106.141 188.892 106.489 189.24 106.753 189.672C107.029 190.104 107.167 190.65 107.167 191.31C107.167 192.018 106.969 192.666 106.573 193.254C106.177 193.842 105.583 194.316 104.791 194.676C104.011 195.036 103.021 195.216 101.821 195.216ZM113.569 195.144C112.537 195.144 111.619 194.928 110.815 194.496C110.023 194.064 109.393 193.476 108.925 192.732C108.469 191.976 108.241 191.118 108.241 190.158C108.241 189.186 108.469 188.328 108.925 187.584C109.393 186.828 110.023 186.24 110.815 185.82C111.619 185.388 112.537 185.172 113.569 185.172C114.589 185.172 115.501 185.388 116.305 185.82C117.109 186.24 117.739 186.822 118.195 187.566C118.651 188.31 118.879 189.174 118.879 190.158C118.879 191.118 118.651 191.976 118.195 192.732C117.739 193.476 117.109 194.064 116.305 194.496C115.501 194.928 114.589 195.144 113.569 195.144ZM113.569 192.84C114.037 192.84 114.457 192.732 114.829 192.516C115.201 192.3 115.495 191.994 115.711 191.598C115.927 191.19 116.035 190.71 116.035 190.158C116.035 189.594 115.927 189.114 115.711 188.718C115.495 188.322 115.201 188.016 114.829 187.8C114.457 187.584 114.037 187.476 113.569 187.476C113.101 187.476 112.681 187.584 112.309 187.8C111.937 188.016 111.637 188.322 111.409 188.718C111.193 189.114 111.085 189.594 111.085 190.158C111.085 190.71 111.193 191.19 111.409 191.598C111.637 191.994 111.937 192.3 112.309 192.516C112.681 192.732 113.101 192.84 113.569 192.84ZM125.436 195.144C124.392 195.144 123.462 194.934 122.646 194.514C121.83 194.082 121.188 193.488 120.72 192.732C120.264 191.976 120.036 191.118 120.036 190.158C120.036 189.186 120.264 188.328 120.72 187.584C121.188 186.828 121.83 186.24 122.646 185.82C123.462 185.388 124.392 185.172 125.436 185.172C126.456 185.172 127.344 185.388 128.1 185.82C128.856 186.24 129.414 186.846 129.774 187.638L127.596 188.808C127.344 188.352 127.026 188.016 126.642 187.8C126.27 187.584 125.862 187.476 125.418 187.476C124.938 187.476 124.506 187.584 124.122 187.8C123.738 188.016 123.432 188.322 123.204 188.718C122.988 189.114 122.88 189.594 122.88 190.158C122.88 190.722 122.988 191.202 123.204 191.598C123.432 191.994 123.738 192.3 124.122 192.516C124.506 192.732 124.938 192.84 125.418 192.84C125.862 192.84 126.27 192.738 126.642 192.534C127.026 192.318 127.344 191.976 127.596 191.508L129.774 192.696C129.414 193.476 128.856 194.082 128.1 194.514C127.344 194.934 126.456 195.144 125.436 195.144ZM131.338 195V185.316H134.146V195H131.338ZM132.742 183.966C132.226 183.966 131.806 183.816 131.482 183.516C131.158 183.216 130.996 182.844 130.996 182.4C130.996 181.956 131.158 181.584 131.482 181.284C131.806 180.984 132.226 180.834 132.742 180.834C133.258 180.834 133.678 180.978 134.002 181.266C134.326 181.542 134.488 181.902 134.488 182.346C134.488 182.814 134.326 183.204 134.002 183.516C133.69 183.816 133.27 183.966 132.742 183.966ZM141.558 195.144C140.454 195.144 139.482 194.928 138.642 194.496C137.814 194.064 137.172 193.476 136.716 192.732C136.26 191.976 136.032 191.118 136.032 190.158C136.032 189.186 136.254 188.328 136.698 187.584C137.154 186.828 137.772 186.24 138.552 185.82C139.332 185.388 140.214 185.172 141.198 185.172C142.146 185.172 142.998 185.376 143.754 185.784C144.522 186.18 145.128 186.756 145.572 187.512C146.016 188.256 146.238 189.15 146.238 190.194C146.238 190.302 146.232 190.428 146.22 190.572C146.208 190.704 146.196 190.83 146.184 190.95H138.318V189.312H144.708L143.628 189.798C143.628 189.294 143.526 188.856 143.322 188.484C143.118 188.112 142.836 187.824 142.476 187.62C142.116 187.404 141.696 187.296 141.216 187.296C140.736 187.296 140.31 187.404 139.938 187.62C139.578 187.824 139.296 188.118 139.092 188.502C138.888 188.874 138.786 189.318 138.786 189.834V190.266C138.786 190.794 138.9 191.262 139.128 191.67C139.368 192.066 139.698 192.372 140.118 192.588C140.55 192.792 141.054 192.894 141.63 192.894C142.146 192.894 142.596 192.816 142.98 192.66C143.376 192.504 143.736 192.27 144.06 191.958L145.554 193.578C145.11 194.082 144.552 194.472 143.88 194.748C143.208 195.012 142.434 195.144 141.558 195.144ZM152.068 195.144C150.928 195.144 150.04 194.856 149.404 194.28C148.768 193.692 148.45 192.822 148.45 191.67V183.174H151.258V191.634C151.258 192.042 151.366 192.36 151.582 192.588C151.798 192.804 152.092 192.912 152.464 192.912C152.908 192.912 153.286 192.792 153.598 192.552L154.354 194.532C154.066 194.736 153.718 194.892 153.31 195C152.914 195.096 152.5 195.144 152.068 195.144ZM146.956 187.692V185.532H153.67V187.692H146.956ZM156.978 198.636C156.474 198.636 155.976 198.558 155.484 198.402C154.992 198.246 154.59 198.03 154.278 197.754L155.304 195.756C155.52 195.948 155.766 196.098 156.042 196.206C156.33 196.314 156.612 196.368 156.888 196.368C157.284 196.368 157.596 196.272 157.824 196.08C158.064 195.9 158.28 195.594 158.472 195.162L158.976 193.974L159.192 193.668L162.666 185.316H165.366L160.992 195.594C160.68 196.374 160.32 196.986 159.912 197.43C159.516 197.874 159.072 198.186 158.58 198.366C158.1 198.546 157.566 198.636 156.978 198.636ZM158.634 195.378L154.314 185.316H157.212L160.56 193.416L158.634 195.378Z" fill="#0074BA"/>
<g clip-path="url(#clip0_1366_45)">
<path d="M100 99.9998C106.446 99.9998 111.667 94.779 111.667 88.3332C111.667 81.8873 106.446 76.6665 100 76.6665C93.5542 76.6665 88.3333 81.8873 88.3333 88.3332C88.3333 94.779 93.5542 99.9998 100 99.9998ZM100 105.833C92.2125 105.833 76.6667 109.742 76.6667 117.5V123.333H123.333V117.5C123.333 109.742 107.787 105.833 100 105.833Z" fill="#0074BA"/>
</g>
<g clip-path="url(#clip1_1366_45)">
<path d="M127 94.9998C133.446 94.9998 138.667 89.779 138.667 83.3332C138.667 76.8873 133.446 71.6665 127 71.6665C120.554 71.6665 115.333 76.8873 115.333 83.3332C115.333 89.779 120.554 94.9998 127 94.9998ZM127 100.833C119.212 100.833 103.667 104.742 103.667 112.5V118.333H150.333V112.5C150.333 104.742 134.787 100.833 127 100.833Z" fill="#0074BA"/>
</g>
<g clip-path="url(#clip2_1366_45)">
<path d="M74 94.9998C80.4458 94.9998 85.6667 89.779 85.6667 83.3332C85.6667 76.8873 80.4458 71.6665 74 71.6665C67.5542 71.6665 62.3333 76.8873 62.3333 83.3332C62.3333 89.779 67.5542 94.9998 74 94.9998ZM74 100.833C66.2125 100.833 50.6667 104.742 50.6667 112.5V118.333H97.3333V112.5C97.3333 104.742 81.7875 100.833 74 100.833Z" fill="#0074BA"/>
</g>
<defs>
<filter id="filter0_d_1366_45" x="39" y="40" width="135" height="135" filterUnits="userSpaceOnUse" color-interpolation-filters="sRGB">
<feFlood flood-opacity="0" result="BackgroundImageFix"/>
<feColorMatrix in="SourceAlpha" type="matrix" values="0 0 0 0 0 0 0 0 0 0 0 0 0 0 0 0 0 0 127 0" result="hardAlpha"/>
<feOffset dx="10" dy="10"/>
<feGaussianBlur stdDeviation="2.5"/>
<feComposite in2="hardAlpha" operator="out"/>
<feColorMatrix type="matrix" values="0 0 0 0 0 0 0 0 0 0 0 0 0 0 0 0 0 0 0.3 0"/>
<feBlend mode="normal" in2="BackgroundImageFix" result="effect1_dropShadow_1366_45"/>
<feBlend mode="normal" in="SourceGraphic" in2="effect1_dropShadow_1366_45" result="shape"/>
</filter>
<clipPath id="clip0_1366_45">
<rect width="70" height="70" fill="white" transform="translate(65 65)"/>
</clipPath>
<clipPath id="clip1_1366_45">
<rect width="70" height="70" fill="white" transform="translate(92 60)"/>
</clipPath>
<clipPath id="clip2_1366_45">
<rect width="70" height="70" fill="white" transform="translate(39 60)"/>
</clipPath>
</defs>
</svg>
