<svg width="199" height="199" viewBox="0 0 199 199" fill="none" xmlns="http://www.w3.org/2000/svg">
<g filter="url(#filter0_d_1366_72)">
<circle cx="99" cy="100" r="60" fill="#F5F5F5"/>
<circle cx="99" cy="100" r="58.5" stroke="#0057A4" stroke-width="3"/>
</g>
<path d="M17.4807 195.216C16.4727 195.216 15.5067 195.084 14.5827 194.82C13.6587 194.544 12.9147 194.19 12.3507 193.758L13.3407 191.562C13.8807 191.946 14.5167 192.264 15.2487 192.516C15.9927 192.756 16.7427 192.876 17.4987 192.876C18.0747 192.876 18.5367 192.822 18.8847 192.714C19.2447 192.594 19.5087 192.432 19.6767 192.228C19.8447 192.024 19.9287 191.79 19.9287 191.526C19.9287 191.19 19.7967 190.926 19.5327 190.734C19.2687 190.53 18.9207 190.368 18.4887 190.248C18.0567 190.116 17.5767 189.996 17.0487 189.888C16.5327 189.768 16.0107 189.624 15.4827 189.456C14.9667 189.288 14.4927 189.072 14.0607 188.808C13.6287 188.544 13.2747 188.196 12.9987 187.764C12.7347 187.332 12.6027 186.78 12.6027 186.108C12.6027 185.388 12.7947 184.734 13.1787 184.146C13.5747 183.546 14.1627 183.072 14.9427 182.724C15.7347 182.364 16.7247 182.184 17.9127 182.184C18.7047 182.184 19.4847 182.28 20.2527 182.472C21.0207 182.652 21.6987 182.928 22.2867 183.3L21.3867 185.514C20.7987 185.178 20.2107 184.932 19.6227 184.776C19.0347 184.608 18.4587 184.524 17.8947 184.524C17.3307 184.524 16.8687 184.59 16.5087 184.722C16.1487 184.854 15.8907 185.028 15.7347 185.244C15.5787 185.448 15.5007 185.688 15.5007 185.964C15.5007 186.288 15.6327 186.552 15.8967 186.756C16.1607 186.948 16.5087 187.104 16.9407 187.224C17.3727 187.344 17.8467 187.464 18.3627 187.584C18.8907 187.704 19.4127 187.842 19.9287 187.998C20.4567 188.154 20.9367 188.364 21.3687 188.628C21.8007 188.892 22.1487 189.24 22.4127 189.672C22.6887 190.104 22.8267 190.65 22.8267 191.31C22.8267 192.018 22.6287 192.666 22.2327 193.254C21.8367 193.842 21.2427 194.316 20.4507 194.676C19.6707 195.036 18.6807 195.216 17.4807 195.216ZM37.0232 185.172C37.7912 185.172 38.4692 185.328 39.0572 185.64C39.6572 185.94 40.1252 186.408 40.4612 187.044C40.8092 187.668 40.9832 188.472 40.9832 189.456V195H38.1752V189.888C38.1752 189.108 38.0132 188.532 37.6892 188.16C37.3652 187.788 36.9092 187.602 36.3212 187.602C35.9132 187.602 35.5472 187.698 35.2232 187.89C34.8992 188.07 34.6472 188.346 34.4672 188.718C34.2872 189.09 34.1972 189.564 34.1972 190.14V195H31.3892V189.888C31.3892 189.108 31.2272 188.532 30.9032 188.16C30.5912 187.788 30.1412 187.602 29.5532 187.602C29.1452 187.602 28.7792 187.698 28.4552 187.89C28.1312 188.07 27.8792 188.346 27.6992 188.718C27.5192 189.09 27.4292 189.564 27.4292 190.14V195H24.6212V185.316H27.3032V187.962L26.7992 187.188C27.1352 186.528 27.6092 186.03 28.2212 185.694C28.8452 185.346 29.5532 185.172 30.3452 185.172C31.2332 185.172 32.0072 185.4 32.6672 185.856C33.3392 186.3 33.7832 186.984 33.9992 187.908L33.0092 187.638C33.3332 186.882 33.8492 186.282 34.5572 185.838C35.2772 185.394 36.0992 185.172 37.0232 185.172ZM49.4401 195V193.11L49.2601 192.696V189.312C49.2601 188.712 49.0741 188.244 48.7021 187.908C48.3421 187.572 47.7841 187.404 47.0281 187.404C46.5121 187.404 46.0021 187.488 45.4981 187.656C45.0061 187.812 44.5861 188.028 44.2381 188.304L43.2301 186.342C43.7581 185.97 44.3941 185.682 45.1381 185.478C45.8821 185.274 46.6381 185.172 47.4061 185.172C48.8821 185.172 50.0281 185.52 50.8441 186.216C51.6601 186.912 52.0681 187.998 52.0681 189.474V195H49.4401ZM46.4881 195.144C45.7321 195.144 45.0841 195.018 44.5441 194.766C44.0041 194.502 43.5901 194.148 43.3021 193.704C43.0141 193.26 42.8701 192.762 42.8701 192.21C42.8701 191.634 43.0081 191.13 43.2841 190.698C43.5721 190.266 44.0221 189.93 44.6341 189.69C45.2461 189.438 46.0441 189.312 47.0281 189.312H49.6021V190.95H47.3341C46.6741 190.95 46.2181 191.058 45.9661 191.274C45.7261 191.49 45.6061 191.76 45.6061 192.084C45.6061 192.444 45.7441 192.732 46.0201 192.948C46.3081 193.152 46.6981 193.254 47.1901 193.254C47.6581 193.254 48.0781 193.146 48.4501 192.93C48.8221 192.702 49.0921 192.372 49.2601 191.94L49.6921 193.236C49.4881 193.86 49.1161 194.334 48.5761 194.658C48.0361 194.982 47.3401 195.144 46.4881 195.144ZM54.6095 195V185.316H57.2915V188.052L56.9135 187.26C57.2015 186.576 57.6635 186.06 58.2995 185.712C58.9355 185.352 59.7095 185.172 60.6215 185.172V187.764C60.5015 187.752 60.3935 187.746 60.2975 187.746C60.2015 187.734 60.0995 187.728 59.9915 187.728C59.2235 187.728 58.5995 187.95 58.1195 188.394C57.6515 188.826 57.4175 189.504 57.4175 190.428V195H54.6095ZM66.5851 195.144C65.4451 195.144 64.5571 194.856 63.9211 194.28C63.2851 193.692 62.9671 192.822 62.9671 191.67V183.174H65.7751V191.634C65.7751 192.042 65.8831 192.36 66.0991 192.588C66.3151 192.804 66.6091 192.912 66.9811 192.912C67.4251 192.912 67.8031 192.792 68.1151 192.552L68.8711 194.532C68.5831 194.736 68.2351 194.892 67.8271 195C67.4311 195.096 67.0171 195.144 66.5851 195.144ZM61.4731 187.692V185.532H68.1871V187.692H61.4731ZM81.827 195.216C80.831 195.216 79.913 195.06 79.073 194.748C78.245 194.424 77.519 193.968 76.895 193.38C76.283 192.792 75.803 192.102 75.455 191.31C75.119 190.518 74.951 189.648 74.951 188.7C74.951 187.752 75.119 186.882 75.455 186.09C75.803 185.298 76.289 184.608 76.913 184.02C77.537 183.432 78.269 182.982 79.109 182.67C79.949 182.346 80.873 182.184 81.881 182.184C82.997 182.184 83.999 182.37 84.887 182.742C85.787 183.114 86.543 183.654 87.155 184.362L85.283 186.09C84.827 185.61 84.329 185.256 83.789 185.028C83.249 184.788 82.661 184.668 82.025 184.668C81.413 184.668 80.855 184.764 80.351 184.956C79.847 185.148 79.409 185.424 79.037 185.784C78.677 186.144 78.395 186.57 78.191 187.062C77.999 187.554 77.903 188.1 77.903 188.7C77.903 189.288 77.999 189.828 78.191 190.32C78.395 190.812 78.677 191.244 79.037 191.616C79.409 191.976 79.841 192.252 80.333 192.444C80.837 192.636 81.389 192.732 81.989 192.732C82.565 192.732 83.123 192.642 83.663 192.462C84.215 192.27 84.749 191.952 85.265 191.508L86.921 193.614C86.237 194.13 85.439 194.526 84.527 194.802C83.627 195.078 82.727 195.216 81.827 195.216ZM84.257 193.236V188.502H86.921V193.614L84.257 193.236ZM94.0397 195.144C93.0077 195.144 92.0897 194.928 91.2857 194.496C90.4937 194.064 89.8637 193.476 89.3957 192.732C88.9397 191.976 88.7117 191.118 88.7117 190.158C88.7117 189.186 88.9397 188.328 89.3957 187.584C89.8637 186.828 90.4937 186.24 91.2857 185.82C92.0897 185.388 93.0077 185.172 94.0397 185.172C95.0597 185.172 95.9717 185.388 96.7757 185.82C97.5797 186.24 98.2097 186.822 98.6657 187.566C99.1217 188.31 99.3497 189.174 99.3497 190.158C99.3497 191.118 99.1217 191.976 98.6657 192.732C98.2097 193.476 97.5797 194.064 96.7757 194.496C95.9717 194.928 95.0597 195.144 94.0397 195.144ZM94.0397 192.84C94.5077 192.84 94.9277 192.732 95.2997 192.516C95.6717 192.3 95.9657 191.994 96.1817 191.598C96.3977 191.19 96.5057 190.71 96.5057 190.158C96.5057 189.594 96.3977 189.114 96.1817 188.718C95.9657 188.322 95.6717 188.016 95.2997 187.8C94.9277 187.584 94.5077 187.476 94.0397 187.476C93.5717 187.476 93.1517 187.584 92.7797 187.8C92.4077 188.016 92.1077 188.322 91.8797 188.718C91.6637 189.114 91.5557 189.594 91.5557 190.158C91.5557 190.71 91.6637 191.19 91.8797 191.598C92.1077 191.994 92.4077 192.3 92.7797 192.516C93.1517 192.732 93.5717 192.84 94.0397 192.84ZM103.591 195L99.523 185.316H102.421L105.805 193.65H104.365L107.875 185.316H110.575L106.489 195H103.591ZM116.263 195.144C115.159 195.144 114.187 194.928 113.347 194.496C112.519 194.064 111.877 193.476 111.421 192.732C110.965 191.976 110.737 191.118 110.737 190.158C110.737 189.186 110.959 188.328 111.403 187.584C111.859 186.828 112.477 186.24 113.257 185.82C114.037 185.388 114.919 185.172 115.903 185.172C116.851 185.172 117.703 185.376 118.459 185.784C119.227 186.18 119.833 186.756 120.277 187.512C120.721 188.256 120.943 189.15 120.943 190.194C120.943 190.302 120.937 190.428 120.925 190.572C120.913 190.704 120.901 190.83 120.889 190.95H113.023V189.312H119.413L118.333 189.798C118.333 189.294 118.231 188.856 118.027 188.484C117.823 188.112 117.541 187.824 117.181 187.62C116.821 187.404 116.401 187.296 115.921 187.296C115.441 187.296 115.015 187.404 114.643 187.62C114.283 187.824 114.001 188.118 113.797 188.502C113.593 188.874 113.491 189.318 113.491 189.834V190.266C113.491 190.794 113.605 191.262 113.833 191.67C114.073 192.066 114.403 192.372 114.823 192.588C115.255 192.792 115.759 192.894 116.335 192.894C116.851 192.894 117.301 192.816 117.685 192.66C118.081 192.504 118.441 192.27 118.765 191.958L120.259 193.578C119.815 194.082 119.257 194.472 118.585 194.748C117.913 195.012 117.139 195.144 116.263 195.144ZM122.813 195V185.316H125.495V188.052L125.117 187.26C125.405 186.576 125.867 186.06 126.503 185.712C127.139 185.352 127.913 185.172 128.825 185.172V187.764C128.705 187.752 128.597 187.746 128.501 187.746C128.405 187.734 128.303 187.728 128.195 187.728C127.427 187.728 126.803 187.95 126.323 188.394C125.855 188.826 125.621 189.504 125.621 190.428V195H122.813ZM136.398 185.172C137.166 185.172 137.85 185.328 138.45 185.64C139.062 185.94 139.542 186.408 139.89 187.044C140.238 187.668 140.412 188.472 140.412 189.456V195H137.604V189.888C137.604 189.108 137.43 188.532 137.082 188.16C136.746 187.788 136.266 187.602 135.642 187.602C135.198 187.602 134.796 187.698 134.436 187.89C134.088 188.07 133.812 188.352 133.608 188.736C133.416 189.12 133.32 189.612 133.32 190.212V195H130.512V185.316H133.194V187.998L132.69 187.188C133.038 186.54 133.536 186.042 134.184 185.694C134.832 185.346 135.57 185.172 136.398 185.172ZM148.897 195V193.11L148.717 192.696V189.312C148.717 188.712 148.531 188.244 148.159 187.908C147.799 187.572 147.241 187.404 146.485 187.404C145.969 187.404 145.459 187.488 144.955 187.656C144.463 187.812 144.043 188.028 143.695 188.304L142.687 186.342C143.215 185.97 143.851 185.682 144.595 185.478C145.339 185.274 146.095 185.172 146.863 185.172C148.339 185.172 149.485 185.52 150.301 186.216C151.117 186.912 151.525 187.998 151.525 189.474V195H148.897ZM145.945 195.144C145.189 195.144 144.541 195.018 144.001 194.766C143.461 194.502 143.047 194.148 142.759 193.704C142.471 193.26 142.327 192.762 142.327 192.21C142.327 191.634 142.465 191.13 142.741 190.698C143.029 190.266 143.479 189.93 144.091 189.69C144.703 189.438 145.501 189.312 146.485 189.312H149.059V190.95H146.791C146.131 190.95 145.675 191.058 145.423 191.274C145.183 191.49 145.063 191.76 145.063 192.084C145.063 192.444 145.201 192.732 145.477 192.948C145.765 193.152 146.155 193.254 146.647 193.254C147.115 193.254 147.535 193.146 147.907 192.93C148.279 192.702 148.549 192.372 148.717 191.94L149.149 193.236C148.945 193.86 148.573 194.334 148.033 194.658C147.493 194.982 146.797 195.144 145.945 195.144ZM159.953 185.172C160.721 185.172 161.405 185.328 162.005 185.64C162.617 185.94 163.097 186.408 163.445 187.044C163.793 187.668 163.967 188.472 163.967 189.456V195H161.159V189.888C161.159 189.108 160.985 188.532 160.637 188.16C160.301 187.788 159.821 187.602 159.197 187.602C158.753 187.602 158.351 187.698 157.991 187.89C157.643 188.07 157.367 188.352 157.163 188.736C156.971 189.12 156.875 189.612 156.875 190.212V195H154.067V185.316H156.749V187.998L156.245 187.188C156.593 186.54 157.091 186.042 157.739 185.694C158.387 185.346 159.125 185.172 159.953 185.172ZM171.262 195.144C170.218 195.144 169.288 194.934 168.472 194.514C167.656 194.082 167.014 193.488 166.546 192.732C166.09 191.976 165.862 191.118 165.862 190.158C165.862 189.186 166.09 188.328 166.546 187.584C167.014 186.828 167.656 186.24 168.472 185.82C169.288 185.388 170.218 185.172 171.262 185.172C172.282 185.172 173.17 185.388 173.926 185.82C174.682 186.24 175.24 186.846 175.6 187.638L173.422 188.808C173.17 188.352 172.852 188.016 172.468 187.8C172.096 187.584 171.688 187.476 171.244 187.476C170.764 187.476 170.332 187.584 169.948 187.8C169.564 188.016 169.258 188.322 169.03 188.718C168.814 189.114 168.706 189.594 168.706 190.158C168.706 190.722 168.814 191.202 169.03 191.598C169.258 191.994 169.564 192.3 169.948 192.516C170.332 192.732 170.764 192.84 171.244 192.84C171.688 192.84 172.096 192.738 172.468 192.534C172.852 192.318 173.17 191.976 173.422 191.508L175.6 192.696C175.24 193.476 174.682 194.082 173.926 194.514C173.17 194.934 172.282 195.144 171.262 195.144ZM181.9 195.144C180.796 195.144 179.824 194.928 178.984 194.496C178.156 194.064 177.514 193.476 177.058 192.732C176.602 191.976 176.374 191.118 176.374 190.158C176.374 189.186 176.596 188.328 177.04 187.584C177.496 186.828 178.114 186.24 178.894 185.82C179.674 185.388 180.556 185.172 181.54 185.172C182.488 185.172 183.34 185.376 184.096 185.784C184.864 186.18 185.47 186.756 185.914 187.512C186.358 188.256 186.58 189.15 186.58 190.194C186.58 190.302 186.574 190.428 186.562 190.572C186.55 190.704 186.538 190.83 186.526 190.95H178.66V189.312H185.05L183.97 189.798C183.97 189.294 183.868 188.856 183.664 188.484C183.46 188.112 183.178 187.824 182.818 187.62C182.458 187.404 182.038 187.296 181.558 187.296C181.078 187.296 180.652 187.404 180.28 187.62C179.92 187.824 179.638 188.118 179.434 188.502C179.23 188.874 179.128 189.318 179.128 189.834V190.266C179.128 190.794 179.242 191.262 179.47 191.67C179.71 192.066 180.04 192.372 180.46 192.588C180.892 192.792 181.396 192.894 181.972 192.894C182.488 192.894 182.938 192.816 183.322 192.66C183.718 192.504 184.078 192.27 184.402 191.958L185.896 193.578C185.452 194.082 184.894 194.472 184.222 194.748C183.55 195.012 182.776 195.144 181.9 195.144Z" fill="#0074BA"/>
<path d="M117.261 118.261H109.957V120.087H117.261V118.261Z" fill="#0074BA"/>
<path d="M99.913 121.913C114.537 121.913 126.391 110.058 126.391 95.4348C126.391 80.8113 114.537 68.9565 99.913 68.9565C85.2895 68.9565 73.4348 80.8113 73.4348 95.4348C73.4348 110.058 85.2895 121.913 99.913 121.913Z" fill="#0074BA"/>
<path d="M88.0436 111.208L88.2467 129.676L111.09 129.425L110.887 110.956L88.0436 111.208Z" fill="#0074BA"/>
<path d="M80.7391 105.478C93.8499 105.478 104.478 94.8499 104.478 81.7391C104.478 68.6284 93.8499 58 80.7391 58C67.6284 58 57 68.6284 57 81.7391C57 94.8499 67.6284 105.478 80.7391 105.478Z" fill="#F5F5F5"/>
<mask id="mask0_1366_72" style="mask-type:luminance" maskUnits="userSpaceOnUse" x="58" y="59" width="45" height="45">
<path d="M102.652 59.8262H58.8261V103.652H102.652V59.8262Z" fill="white"/>
</mask>
<g mask="url(#mask0_1366_72)">
<path d="M93.7776 83.4559C93.8506 82.9081 93.8871 82.342 93.8871 81.7394C93.8871 81.155 93.8506 80.5707 93.7593 80.0229L97.4663 77.1376C97.795 76.882 97.8863 76.3889 97.6854 76.0238L94.1793 69.9612C93.9602 69.5594 93.5036 69.4316 93.1019 69.5594L88.7376 71.3125C87.8245 70.6185 86.8567 70.0342 85.7793 69.5959L85.1219 64.9577C85.0489 64.5194 84.6836 64.209 84.2454 64.209H77.2332C76.795 64.209 76.448 64.5194 76.375 64.9577L75.7176 69.5959C74.6402 70.0342 73.6541 70.6368 72.7593 71.3125L68.395 69.5594C67.9932 69.4133 67.5367 69.5594 67.3176 69.9612L63.8298 76.0238C63.6106 76.4072 63.6837 76.882 64.0489 77.1376L67.7558 80.0229C67.6645 80.5707 67.5915 81.1733 67.5915 81.7394C67.5915 82.3055 67.628 82.9081 67.7193 83.4559L64.0124 86.3411C63.6837 86.5968 63.5924 87.0898 63.7932 87.455L67.2993 93.5176C67.5184 93.9194 67.975 94.0472 68.3767 93.9194L72.7411 92.1663C73.6541 92.8603 74.6219 93.4446 75.6993 93.8829L76.3567 98.5211C76.448 98.9594 76.795 99.2698 77.2332 99.2698H84.2454C84.6836 99.2698 85.0489 98.9594 85.1036 98.5211L85.761 93.8829C86.8384 93.4446 87.8245 92.8603 88.7193 92.1663L93.0836 93.9194C93.4854 94.0655 93.9419 93.9194 94.161 93.5176L97.6671 87.455C97.8863 87.0533 97.795 86.5968 97.448 86.3411L93.7776 83.4559ZM80.7393 88.3133C77.1236 88.3133 74.1654 85.355 74.1654 81.7394C74.1654 78.1237 77.1236 75.1655 80.7393 75.1655C84.355 75.1655 87.3132 78.1237 87.3132 81.7394C87.3132 85.355 84.355 88.3133 80.7393 88.3133Z" fill="#0074BA"/>
</g>
<path d="M134.02 101.979C134.932 103.057 134.327 104.717 132.936 104.957L117.85 107.559C116.468 107.798 115.344 106.453 115.824 105.135L121.026 90.8432C121.506 89.5251 123.231 89.2176 124.136 90.2888L134.02 101.979Z" fill="#0074BA"/>
<path d="M94.7129 102.57H125.756V111.701C125.756 115.735 122.486 119.005 118.452 119.005H94.7129V102.57Z" fill="#0074BA"/>
<path d="M118.405 140.102L109.276 140.58L108.452 124.86C108.294 121.838 110.614 119.261 113.636 119.102L117.294 118.911L118.405 140.102Z" fill="#F5F5F5"/>
<defs>
<filter id="filter0_d_1366_72" x="39" y="40" width="135" height="135" filterUnits="userSpaceOnUse" color-interpolation-filters="sRGB">
<feFlood flood-opacity="0" result="BackgroundImageFix"/>
<feColorMatrix in="SourceAlpha" type="matrix" values="0 0 0 0 0 0 0 0 0 0 0 0 0 0 0 0 0 0 127 0" result="hardAlpha"/>
<feOffset dx="10" dy="10"/>
<feGaussianBlur stdDeviation="2.5"/>
<feComposite in2="hardAlpha" operator="out"/>
<feColorMatrix type="matrix" values="0 0 0 0 0 0 0 0 0 0 0 0 0 0 0 0 0 0 0.3 0"/>
<feBlend mode="normal" in2="BackgroundImageFix" result="effect1_dropShadow_1366_72"/>
<feBlend mode="normal" in="SourceGraphic" in2="effect1_dropShadow_1366_72" result="shape"/>
</filter>
</defs>
</svg>
