<svg width="199" height="199" viewBox="0 0 199 199" fill="none" xmlns="http://www.w3.org/2000/svg">
<g filter="url(#filter0_d_1366_88)">
<circle cx="99" cy="100" r="60" fill="#F5F5F5"/>
<circle cx="99" cy="100" r="58.5" stroke="#0057A4" stroke-width="3"/>
</g>
<path d="M29.882 195.216C28.874 195.216 27.908 195.084 26.984 194.82C26.06 194.544 25.316 194.19 24.752 193.758L25.742 191.562C26.282 191.946 26.918 192.264 27.65 192.516C28.394 192.756 29.144 192.876 29.9 192.876C30.476 192.876 30.938 192.822 31.286 192.714C31.646 192.594 31.91 192.432 32.078 192.228C32.246 192.024 32.33 191.79 32.33 191.526C32.33 191.19 32.198 190.926 31.934 190.734C31.67 190.53 31.322 190.368 30.89 190.248C30.458 190.116 29.978 189.996 29.45 189.888C28.934 189.768 28.412 189.624 27.884 189.456C27.368 189.288 26.894 189.072 26.462 188.808C26.03 188.544 25.676 188.196 25.4 187.764C25.136 187.332 25.004 186.78 25.004 186.108C25.004 185.388 25.196 184.734 25.58 184.146C25.976 183.546 26.564 183.072 27.344 182.724C28.136 182.364 29.126 182.184 30.314 182.184C31.106 182.184 31.886 182.28 32.654 182.472C33.422 182.652 34.1 182.928 34.688 183.3L33.788 185.514C33.2 185.178 32.612 184.932 32.024 184.776C31.436 184.608 30.86 184.524 30.296 184.524C29.732 184.524 29.27 184.59 28.91 184.722C28.55 184.854 28.292 185.028 28.136 185.244C27.98 185.448 27.902 185.688 27.902 185.964C27.902 186.288 28.034 186.552 28.298 186.756C28.562 186.948 28.91 187.104 29.342 187.224C29.774 187.344 30.248 187.464 30.764 187.584C31.292 187.704 31.814 187.842 32.33 187.998C32.858 188.154 33.338 188.364 33.77 188.628C34.202 188.892 34.55 189.24 34.814 189.672C35.09 190.104 35.228 190.65 35.228 191.31C35.228 192.018 35.03 192.666 34.634 193.254C34.238 193.842 33.644 194.316 32.852 194.676C32.072 195.036 31.082 195.216 29.882 195.216ZM49.4246 185.172C50.1926 185.172 50.8706 185.328 51.4586 185.64C52.0586 185.94 52.5266 186.408 52.8626 187.044C53.2106 187.668 53.3846 188.472 53.3846 189.456V195H50.5766V189.888C50.5766 189.108 50.4146 188.532 50.0906 188.16C49.7666 187.788 49.3106 187.602 48.7226 187.602C48.3146 187.602 47.9486 187.698 47.6246 187.89C47.3006 188.07 47.0486 188.346 46.8686 188.718C46.6886 189.09 46.5986 189.564 46.5986 190.14V195H43.7906V189.888C43.7906 189.108 43.6286 188.532 43.3046 188.16C42.9926 187.788 42.5426 187.602 41.9546 187.602C41.5466 187.602 41.1806 187.698 40.8566 187.89C40.5326 188.07 40.2806 188.346 40.1006 188.718C39.9206 189.09 39.8306 189.564 39.8306 190.14V195H37.0226V185.316H39.7046V187.962L39.2006 187.188C39.5366 186.528 40.0106 186.03 40.6226 185.694C41.2466 185.346 41.9546 185.172 42.7466 185.172C43.6346 185.172 44.4086 185.4 45.0686 185.856C45.7406 186.3 46.1846 186.984 46.4006 187.908L45.4106 187.638C45.7346 186.882 46.2506 186.282 46.9586 185.838C47.6786 185.394 48.5006 185.172 49.4246 185.172ZM61.8415 195V193.11L61.6615 192.696V189.312C61.6615 188.712 61.4755 188.244 61.1035 187.908C60.7435 187.572 60.1855 187.404 59.4295 187.404C58.9135 187.404 58.4035 187.488 57.8995 187.656C57.4075 187.812 56.9875 188.028 56.6395 188.304L55.6315 186.342C56.1595 185.97 56.7955 185.682 57.5395 185.478C58.2835 185.274 59.0395 185.172 59.8075 185.172C61.2835 185.172 62.4295 185.52 63.2455 186.216C64.0615 186.912 64.4695 187.998 64.4695 189.474V195H61.8415ZM58.8895 195.144C58.1335 195.144 57.4855 195.018 56.9455 194.766C56.4055 194.502 55.9915 194.148 55.7035 193.704C55.4155 193.26 55.2715 192.762 55.2715 192.21C55.2715 191.634 55.4095 191.13 55.6855 190.698C55.9735 190.266 56.4235 189.93 57.0355 189.69C57.6475 189.438 58.4455 189.312 59.4295 189.312H62.0035V190.95H59.7355C59.0755 190.95 58.6195 191.058 58.3675 191.274C58.1275 191.49 58.0075 191.76 58.0075 192.084C58.0075 192.444 58.1455 192.732 58.4215 192.948C58.7095 193.152 59.0995 193.254 59.5915 193.254C60.0595 193.254 60.4795 193.146 60.8515 192.93C61.2235 192.702 61.4935 192.372 61.6615 191.94L62.0935 193.236C61.8895 193.86 61.5175 194.334 60.9775 194.658C60.4375 194.982 59.7415 195.144 58.8895 195.144ZM67.0108 195V185.316H69.6928V188.052L69.3148 187.26C69.6028 186.576 70.0648 186.06 70.7008 185.712C71.3368 185.352 72.1108 185.172 73.0228 185.172V187.764C72.9028 187.752 72.7948 187.746 72.6988 187.746C72.6028 187.734 72.5008 187.728 72.3928 187.728C71.6248 187.728 71.0008 187.95 70.5208 188.394C70.0528 188.826 69.8188 189.504 69.8188 190.428V195H67.0108ZM78.9865 195.144C77.8465 195.144 76.9585 194.856 76.3225 194.28C75.6865 193.692 75.3685 192.822 75.3685 191.67V183.174H78.1765V191.634C78.1765 192.042 78.2845 192.36 78.5005 192.588C78.7165 192.804 79.0105 192.912 79.3825 192.912C79.8265 192.912 80.2045 192.792 80.5165 192.552L81.2725 194.532C80.9845 194.736 80.6365 194.892 80.2285 195C79.8325 195.096 79.4185 195.144 78.9865 195.144ZM73.8745 187.692V185.532H80.5885V187.692H73.8745ZM90.8264 187.476H96.8924V189.744H90.8264V187.476ZM91.0424 192.66H97.9004V195H88.1444V182.4H97.6664V184.74H91.0424V192.66ZM104.65 195.144C103.606 195.144 102.676 194.934 101.86 194.514C101.044 194.082 100.402 193.488 99.9338 192.732C99.4778 191.976 99.2498 191.118 99.2498 190.158C99.2498 189.186 99.4778 188.328 99.9338 187.584C100.402 186.828 101.044 186.24 101.86 185.82C102.676 185.388 103.606 185.172 104.65 185.172C105.67 185.172 106.558 185.388 107.314 185.82C108.07 186.24 108.628 186.846 108.988 187.638L106.81 188.808C106.558 188.352 106.24 188.016 105.856 187.8C105.484 187.584 105.076 187.476 104.632 187.476C104.152 187.476 103.72 187.584 103.336 187.8C102.952 188.016 102.646 188.322 102.418 188.718C102.202 189.114 102.094 189.594 102.094 190.158C102.094 190.722 102.202 191.202 102.418 191.598C102.646 191.994 102.952 192.3 103.336 192.516C103.72 192.732 104.152 192.84 104.632 192.84C105.076 192.84 105.484 192.738 105.856 192.534C106.24 192.318 106.558 191.976 106.81 191.508L108.988 192.696C108.628 193.476 108.07 194.082 107.314 194.514C106.558 194.934 105.67 195.144 104.65 195.144ZM115.09 195.144C114.058 195.144 113.14 194.928 112.336 194.496C111.544 194.064 110.914 193.476 110.446 192.732C109.99 191.976 109.762 191.118 109.762 190.158C109.762 189.186 109.99 188.328 110.446 187.584C110.914 186.828 111.544 186.24 112.336 185.82C113.14 185.388 114.058 185.172 115.09 185.172C116.11 185.172 117.022 185.388 117.826 185.82C118.63 186.24 119.26 186.822 119.716 187.566C120.172 188.31 120.4 189.174 120.4 190.158C120.4 191.118 120.172 191.976 119.716 192.732C119.26 193.476 118.63 194.064 117.826 194.496C117.022 194.928 116.11 195.144 115.09 195.144ZM115.09 192.84C115.558 192.84 115.978 192.732 116.35 192.516C116.722 192.3 117.016 191.994 117.232 191.598C117.448 191.19 117.556 190.71 117.556 190.158C117.556 189.594 117.448 189.114 117.232 188.718C117.016 188.322 116.722 188.016 116.35 187.8C115.978 187.584 115.558 187.476 115.09 187.476C114.622 187.476 114.202 187.584 113.83 187.8C113.458 188.016 113.158 188.322 112.93 188.718C112.714 189.114 112.606 189.594 112.606 190.158C112.606 190.71 112.714 191.19 112.93 191.598C113.158 191.994 113.458 192.3 113.83 192.516C114.202 192.732 114.622 192.84 115.09 192.84ZM128.162 185.172C128.93 185.172 129.614 185.328 130.214 185.64C130.826 185.94 131.306 186.408 131.654 187.044C132.002 187.668 132.176 188.472 132.176 189.456V195H129.368V189.888C129.368 189.108 129.194 188.532 128.846 188.16C128.51 187.788 128.03 187.602 127.406 187.602C126.962 187.602 126.56 187.698 126.2 187.89C125.852 188.07 125.576 188.352 125.372 188.736C125.18 189.12 125.084 189.612 125.084 190.212V195H122.276V185.316H124.958V187.998L124.454 187.188C124.802 186.54 125.3 186.042 125.948 185.694C126.596 185.346 127.334 185.172 128.162 185.172ZM139.4 195.144C138.368 195.144 137.45 194.928 136.646 194.496C135.854 194.064 135.224 193.476 134.756 192.732C134.3 191.976 134.072 191.118 134.072 190.158C134.072 189.186 134.3 188.328 134.756 187.584C135.224 186.828 135.854 186.24 136.646 185.82C137.45 185.388 138.368 185.172 139.4 185.172C140.42 185.172 141.332 185.388 142.136 185.82C142.94 186.24 143.57 186.822 144.026 187.566C144.482 188.31 144.71 189.174 144.71 190.158C144.71 191.118 144.482 191.976 144.026 192.732C143.57 193.476 142.94 194.064 142.136 194.496C141.332 194.928 140.42 195.144 139.4 195.144ZM139.4 192.84C139.868 192.84 140.288 192.732 140.66 192.516C141.032 192.3 141.326 191.994 141.542 191.598C141.758 191.19 141.866 190.71 141.866 190.158C141.866 189.594 141.758 189.114 141.542 188.718C141.326 188.322 141.032 188.016 140.66 187.8C140.288 187.584 139.868 187.476 139.4 187.476C138.932 187.476 138.512 187.584 138.14 187.8C137.768 188.016 137.468 188.322 137.24 188.718C137.024 189.114 136.916 189.594 136.916 190.158C136.916 190.71 137.024 191.19 137.24 191.598C137.468 191.994 137.768 192.3 138.14 192.516C138.512 192.732 138.932 192.84 139.4 192.84ZM158.989 185.172C159.757 185.172 160.435 185.328 161.023 185.64C161.623 185.94 162.091 186.408 162.427 187.044C162.775 187.668 162.949 188.472 162.949 189.456V195H160.141V189.888C160.141 189.108 159.979 188.532 159.655 188.16C159.331 187.788 158.875 187.602 158.287 187.602C157.879 187.602 157.513 187.698 157.189 187.89C156.865 188.07 156.613 188.346 156.433 188.718C156.253 189.09 156.163 189.564 156.163 190.14V195H153.355V189.888C153.355 189.108 153.193 188.532 152.869 188.16C152.557 187.788 152.107 187.602 151.519 187.602C151.111 187.602 150.745 187.698 150.421 187.89C150.097 188.07 149.845 188.346 149.665 188.718C149.485 189.09 149.395 189.564 149.395 190.14V195H146.587V185.316H149.269V187.962L148.765 187.188C149.101 186.528 149.575 186.03 150.187 185.694C150.811 185.346 151.519 185.172 152.311 185.172C153.199 185.172 153.973 185.4 154.633 185.856C155.305 186.3 155.749 186.984 155.965 187.908L154.975 187.638C155.299 186.882 155.815 186.282 156.523 185.838C157.243 185.394 158.065 185.172 158.989 185.172ZM166.514 198.636C166.01 198.636 165.512 198.558 165.02 198.402C164.528 198.246 164.126 198.03 163.814 197.754L164.84 195.756C165.056 195.948 165.302 196.098 165.578 196.206C165.866 196.314 166.148 196.368 166.424 196.368C166.82 196.368 167.132 196.272 167.36 196.08C167.6 195.9 167.816 195.594 168.008 195.162L168.512 193.974L168.728 193.668L172.202 185.316H174.902L170.528 195.594C170.216 196.374 169.856 196.986 169.448 197.43C169.052 197.874 168.608 198.186 168.116 198.366C167.636 198.546 167.102 198.636 166.514 198.636ZM168.17 195.378L163.85 185.316H166.748L170.096 193.416L168.17 195.378Z" fill="#0074BA"/>
<path d="M79.4086 65.086C79.2326 65.1687 78.8621 65.5914 78.3897 66.2438C77.9821 66.8044 77.4819 67.4844 77.2781 67.7601C77.0743 68.0266 76.6668 68.578 76.3611 68.9731C75.6942 69.8553 75.37 70.2137 75.2774 70.1494C75.2403 70.131 74.7308 69.1937 74.1565 68.0817C73.0357 65.9038 72.5633 65.2422 72.1558 65.2422C71.7019 65.2422 70.4236 65.5914 69.6548 65.9314C67.3854 66.9239 64.5695 68.8996 64.1619 69.791C63.8377 70.4894 63.9581 70.9213 64.9122 72.41C66.2183 74.4593 68.2376 78.1351 71.3962 84.191C72.4244 86.176 72.4336 86.1943 72.7301 86.1943C72.9061 86.1943 73.3414 86.0381 73.7582 85.8176C75.9906 84.6505 79.2141 83.5937 81.891 83.1526C82.2801 83.0883 82.6043 82.9964 82.6043 82.9596C82.6043 82.9137 82.0578 82.0682 81.3816 81.0666C79.7698 78.6681 79.7884 78.8519 80.9648 77.0875C81.4464 76.3615 82.4376 74.8085 83.1601 73.6506C85.3924 70.1034 85.4758 69.938 85.4758 69.0926C85.4758 68.7066 85.4295 68.6055 85.0497 68.192C84.8089 67.9255 84.1882 67.3741 83.6695 66.9606C81.7336 65.426 80.1774 64.7459 79.4086 65.086Z" fill="#0074BA"/>
<path d="M108.911 65.7748C107.92 66.1792 104.307 68.6695 103.075 69.7999C102.603 70.241 102.52 70.3604 102.52 70.6361C102.52 70.8107 102.557 71.0221 102.612 71.114C102.658 71.2059 103.251 71.7572 103.927 72.3362C105.799 73.9443 108.911 77.0136 108.911 77.2526C108.911 77.4731 108.448 77.8867 107.031 78.9251C106.54 79.2927 106.151 79.6235 106.178 79.6694C106.197 79.7062 106.521 79.7613 106.892 79.7981C107.262 79.8348 108.263 79.9635 109.105 80.083C116.108 81.0846 121.74 83.6577 127.066 88.2984C127.65 88.8038 128.159 89.2265 128.196 89.2265C128.446 89.2357 126.742 84.6685 125.575 82.2333C125.223 81.489 124.936 80.7814 124.936 80.6435C124.936 80.4505 125.797 79.55 129.456 75.9017C133.596 71.7572 133.967 71.3621 133.995 71.0496C134.023 70.728 133.976 70.6729 132.698 69.4231C130.66 67.4565 128.835 66.2527 127.881 66.2527C127.02 66.2527 127.075 66.2067 121.805 71.0221C120.666 72.0605 119.674 72.9519 119.591 72.9886C119.508 73.0438 119.396 73.0162 119.304 72.9335C118.285 72.0697 115.413 69.6253 115.024 69.2944C113.088 67.6311 111.18 66.1424 110.634 65.8667C110.124 65.6094 109.42 65.5727 108.911 65.7748Z" fill="#0074BA"/>
<path d="M103.91 84.9994C99.4171 85.4222 95.9342 86.9844 93.1554 89.8056L92.3588 90.6142L91.8586 90.2834C90.6081 89.4655 88.95 88.7396 87.4309 88.3444C84.578 87.6093 81.6324 87.7195 78.7887 88.6661C77.3807 89.1347 76.5285 89.5391 75.4262 90.2559C70.9708 93.1414 68.5254 98.1864 68.5254 104.518C68.5254 105.437 68.7292 107.321 68.9422 108.479C69.2294 109.958 69.7944 111.704 70.5354 113.349C73.5181 119.966 80.0206 125.204 87.7459 127.235C89.1446 127.593 89.2372 127.602 89.302 127.372C89.3576 127.143 89.2557 126.986 88.5239 126.15C86.2545 123.54 84.2167 119.276 83.4201 115.463C83.1885 114.314 83.1329 113.855 83.1237 112.752C83.1144 111.171 83.2256 110.684 83.7072 110.179C84.1148 109.747 84.615 109.6 85.6154 109.6C87.5884 109.591 88.2461 110.353 88.4406 112.908C88.8296 117.953 91.3676 122.989 95.5174 126.968C98.5186 129.844 101.946 131.912 105.966 133.29C110.996 135.009 116.766 135.45 122.269 134.531C125.677 133.971 129.929 132.601 132.912 131.122L133.616 130.773L133.671 129.734C133.764 128.126 133.745 121.932 133.643 120.168C133.125 111.548 131.661 105.18 128.947 99.8405C126.613 95.2458 123.325 91.4689 119.48 88.9785C117.183 87.4898 113.978 86.1573 111.098 85.5049C109.171 85.0638 105.781 84.8248 103.91 84.9994Z" fill="#0074BA"/>
<defs>
<filter id="filter0_d_1366_88" x="39" y="40" width="135" height="135" filterUnits="userSpaceOnUse" color-interpolation-filters="sRGB">
<feFlood flood-opacity="0" result="BackgroundImageFix"/>
<feColorMatrix in="SourceAlpha" type="matrix" values="0 0 0 0 0 0 0 0 0 0 0 0 0 0 0 0 0 0 127 0" result="hardAlpha"/>
<feOffset dx="10" dy="10"/>
<feGaussianBlur stdDeviation="2.5"/>
<feComposite in2="hardAlpha" operator="out"/>
<feColorMatrix type="matrix" values="0 0 0 0 0 0 0 0 0 0 0 0 0 0 0 0 0 0 0.3 0"/>
<feBlend mode="normal" in2="BackgroundImageFix" result="effect1_dropShadow_1366_88"/>
<feBlend mode="normal" in="SourceGraphic" in2="effect1_dropShadow_1366_88" result="shape"/>
</filter>
</defs>
</svg>
